solid OpenSCAD_Model
  facet normal -1 0 0
    outer loop
      vertex -24 6 -20
      vertex -24 6 -9
      vertex -24 39 -20
    endloop
  endfacet
  facet normal -1 0 0
    outer loop
      vertex -24 39 -20
      vertex -24 6 -9
      vertex -24 39 -9
    endloop
  endfacet
  facet normal 0 -1 0
    outer loop
      vertex -24 6 -9
      vertex -24 6 -20
      vertex 24 6 -20
    endloop
  endfacet
  facet normal 0 -1 0
    outer loop
      vertex 24 6 -9
      vertex -24 6 -9
      vertex 24 6 -20
    endloop
  endfacet
  facet normal 0 0 -1
    outer loop
      vertex 13.05 25 -20
      vertex 8 39 -20
      vertex 15.025 28.4208 -20
    endloop
  endfacet
  facet normal 0 0 -1
    outer loop
      vertex -24 6 -20
      vertex -8 25 -20
      vertex -7.76753 23.0855 -20
    endloop
  endfacet
  facet normal 0 0 -1
    outer loop
      vertex -24 6 -20
      vertex -7.76753 23.0855 -20
      vertex -7.08365 21.2822 -20
    endloop
  endfacet
  facet normal 0 0 -1
    outer loop
      vertex -24 6 -20
      vertex -7.08365 21.2822 -20
      vertex -5.98809 19.695 -20
    endloop
  endfacet
  facet normal 0 0 -1
    outer loop
      vertex -24 6 -20
      vertex -5.98809 19.695 -20
      vertex -4.54452 18.4161 -20
    endloop
  endfacet
  facet normal 0 0 -1
    outer loop
      vertex -24 6 -20
      vertex -4.54452 18.4161 -20
      vertex -2.83684 17.5199 -20
    endloop
  endfacet
  facet normal 0 0 -1
    outer loop
      vertex -24 6 -20
      vertex -2.83684 17.5199 -20
      vertex 24 6 -20
    endloop
  endfacet
  facet normal 0 0 -1
    outer loop
      vertex 0.964293 17.0583 -20
      vertex 24 6 -20
      vertex -0.964293 17.0583 -20
    endloop
  endfacet
  facet normal 0 0 -1
    outer loop
      vertex 2.83684 17.5199 -20
      vertex 24 6 -20
      vertex 0.964293 17.0583 -20
    endloop
  endfacet
  facet normal 0 0 -1
    outer loop
      vertex 4.54452 18.4161 -20
      vertex 24 6 -20
      vertex 2.83684 17.5199 -20
    endloop
  endfacet
  facet normal 0 0 -1
    outer loop
      vertex -0.964293 17.0583 -20
      vertex 24 6 -20
      vertex -2.83684 17.5199 -20
    endloop
  endfacet
  facet normal 0 0 -1
    outer loop
      vertex 7.76753 23.0855 -20
      vertex 24 6 -20
      vertex 7.08365 21.2822 -20
    endloop
  endfacet
  facet normal 0 0 -1
    outer loop
      vertex 24 6 -20
      vertex 5.98809 19.695 -20
      vertex 7.08365 21.2822 -20
    endloop
  endfacet
  facet normal 0 0 -1
    outer loop
      vertex -13.05 25 -20
      vertex -8 25 -20
      vertex -15.025 21.5792 -20
    endloop
  endfacet
  facet normal 0 0 -1
    outer loop
      vertex 24 6 -20
      vertex 7.76753 23.0855 -20
      vertex 8 25 -20
    endloop
  endfacet
  facet normal 0 0 -1
    outer loop
      vertex 18.975 28.4208 -20
      vertex 8 39 -20
      vertex 24 39 -20
    endloop
  endfacet
  facet normal 0 0 -1
    outer loop
      vertex -24 6 -20
      vertex -24 39 -20
      vertex -20.95 25 -20
    endloop
  endfacet
  facet normal 0 0 -1
    outer loop
      vertex -15.025 28.4208 -20
      vertex -24 39 -20
      vertex -8 25 -20
    endloop
  endfacet
  facet normal 0 0 -1
    outer loop
      vertex -24 6 -20
      vertex -20.95 25 -20
      vertex -18.975 21.5792 -20
    endloop
  endfacet
  facet normal 0 0 -1
    outer loop
      vertex -24 6 -20
      vertex -18.975 21.5792 -20
      vertex -15.025 21.5792 -20
    endloop
  endfacet
  facet normal 0 0 -1
    outer loop
      vertex -24 6 -20
      vertex -15.025 21.5792 -20
      vertex -8 25 -20
    endloop
  endfacet
  facet normal 0 0 -1
    outer loop
      vertex -18.975 28.4208 -20
      vertex -24 39 -20
      vertex -15.025 28.4208 -20
    endloop
  endfacet
  facet normal 0 0 -1
    outer loop
      vertex 18.975 28.4208 -20
      vertex 24 39 -20
      vertex 20.95 25 -20
    endloop
  endfacet
  facet normal 0 0 -1
    outer loop
      vertex -13.05 25 -20
      vertex -15.025 28.4208 -20
      vertex -8 25 -20
    endloop
  endfacet
  facet normal 0 0 -1
    outer loop
      vertex -20.95 25 -20
      vertex -24 39 -20
      vertex -18.975 28.4208 -20
    endloop
  endfacet
  facet normal 0 0 -1
    outer loop
      vertex 8 25 -20
      vertex 8 39 -20
      vertex 13.05 25 -20
    endloop
  endfacet
  facet normal 0 0 -1
    outer loop
      vertex 8 25 -20
      vertex 13.05 25 -20
      vertex 24 6 -20
    endloop
  endfacet
  facet normal 0 0 -1
    outer loop
      vertex 18.975 21.5792 -20
      vertex 24 6 -20
      vertex 15.025 21.5792 -20
    endloop
  endfacet
  facet normal 0 0 -1
    outer loop
      vertex 13.05 25 -20
      vertex 15.025 21.5792 -20
      vertex 24 6 -20
    endloop
  endfacet
  facet normal 0 0 -1
    outer loop
      vertex 24 6 -20
      vertex 18.975 21.5792 -20
      vertex 20.95 25 -20
    endloop
  endfacet
  facet normal 0 0 -1
    outer loop
      vertex 24 6 -20
      vertex 20.95 25 -20
      vertex 24 39 -20
    endloop
  endfacet
  facet normal 0 0 -1
    outer loop
      vertex 15.025 28.4208 -20
      vertex 8 39 -20
      vertex 18.975 28.4208 -20
    endloop
  endfacet
  facet normal 0 0 -1
    outer loop
      vertex -8 25 -20
      vertex -24 39 -20
      vertex -8 39 -20
    endloop
  endfacet
  facet normal 0 0 -1
    outer loop
      vertex 5.98809 19.695 -20
      vertex 24 6 -20
      vertex 4.54452 18.4161 -20
    endloop
  endfacet
  facet normal 0 1 0
    outer loop
      vertex -24 39 -20
      vertex -24 39 -9
      vertex -8 39 -20
    endloop
  endfacet
  facet normal 0 1 0
    outer loop
      vertex -8 39 -11.49
      vertex -24 39 -9
      vertex -8 39 -9
    endloop
  endfacet
  facet normal 0 1 0
    outer loop
      vertex -8 39 -20
      vertex -24 39 -9
      vertex -8 39 -16.97
    endloop
  endfacet
  facet normal 0 1 0
    outer loop
      vertex 6 39 -16.51
      vertex 6 39 -11.49
      vertex 8 39 -11.49
    endloop
  endfacet
  facet normal 0 1 0
    outer loop
      vertex 8 39 -11.49
      vertex 8 39 -9
      vertex 24 39 -9
    endloop
  endfacet
  facet normal 0 1 0
    outer loop
      vertex 8 39 -11.49
      vertex 24 39 -9
      vertex 6 39 -16.51
    endloop
  endfacet
  facet normal 0 1 0
    outer loop
      vertex 6 39 -16.51
      vertex 24 39 -9
      vertex 24 39 -20
    endloop
  endfacet
  facet normal 0 1 0
    outer loop
      vertex 8 39 -16.97
      vertex 24 39 -20
      vertex 8 39 -20
    endloop
  endfacet
  facet normal 0 1 0
    outer loop
      vertex 6 39 -16.51
      vertex 24 39 -20
      vertex 8 39 -16.97
    endloop
  endfacet
  facet normal 0 1 0
    outer loop
      vertex -8 39 -11.49
      vertex -6 39 -11.49
      vertex -8 39 -16.97
    endloop
  endfacet
  facet normal 0 1 0
    outer loop
      vertex -8 39 -11.49
      vertex -8 39 -16.97
      vertex -24 39 -9
    endloop
  endfacet
  facet normal 0 1 0
    outer loop
      vertex -8 39 -16.97
      vertex -6 39 -11.49
      vertex -6 39 -16.51
    endloop
  endfacet
  facet normal 0 1 0
    outer loop
      vertex -8 39 -16.97
      vertex -6 39 -16.51
      vertex 6 39 -16.51
    endloop
  endfacet
  facet normal 0 1 0
    outer loop
      vertex -8 39 -16.97
      vertex 6 39 -16.51
      vertex 8 39 -16.97
    endloop
  endfacet
  facet normal 0 0 1
    outer loop
      vertex 2.83684 17.5199 -9
      vertex -24 6 -9
      vertex 24 6 -9
    endloop
  endfacet
  facet normal 0 0 1
    outer loop
      vertex 2.83684 17.5199 -9
      vertex 0.964293 17.0583 -9
      vertex -24 6 -9
    endloop
  endfacet
  facet normal 0 0 1
    outer loop
      vertex 14.5751 25 -9
      vertex 15.7876 27.1 -9
      vertex 8 39 -9
    endloop
  endfacet
  facet normal 0 0 1
    outer loop
      vertex 15.7876 22.9 -9
      vertex 8 25 -9
      vertex 24 6 -9
    endloop
  endfacet
  facet normal 0 0 1
    outer loop
      vertex 8 25 -9
      vertex 7.76753 23.0855 -9
      vertex 24 6 -9
    endloop
  endfacet
  facet normal 0 0 1
    outer loop
      vertex -19.4249 25 -9
      vertex -18.2124 27.1 -9
      vertex -24 39 -9
    endloop
  endfacet
  facet normal 0 0 1
    outer loop
      vertex 7.76753 23.0855 -9
      vertex 7.08365 21.2822 -9
      vertex 24 6 -9
    endloop
  endfacet
  facet normal 0 0 1
    outer loop
      vertex 18.2124 22.9 -9
      vertex 15.7876 22.9 -9
      vertex 24 6 -9
    endloop
  endfacet
  facet normal 0 0 1
    outer loop
      vertex 7.08365 21.2822 -9
      vertex 5.98809 19.695 -9
      vertex 24 6 -9
    endloop
  endfacet
  facet normal 0 0 1
    outer loop
      vertex 4.54452 18.4161 -9
      vertex 2.83684 17.5199 -9
      vertex 24 6 -9
    endloop
  endfacet
  facet normal 0 0 1
    outer loop
      vertex -5.98809 19.695 -9
      vertex -7.08365 21.2822 -9
      vertex -24 39 -9
    endloop
  endfacet
  facet normal 0 0 1
    outer loop
      vertex -0.964293 17.0583 -9
      vertex -24 6 -9
      vertex 0.964293 17.0583 -9
    endloop
  endfacet
  facet normal 0 0 1
    outer loop
      vertex -2.83684 17.5199 -9
      vertex -24 6 -9
      vertex -0.964293 17.0583 -9
    endloop
  endfacet
  facet normal 0 0 1
    outer loop
      vertex -4.54452 18.4161 -9
      vertex -24 6 -9
      vertex -2.83684 17.5199 -9
    endloop
  endfacet
  facet normal 0 0 1
    outer loop
      vertex -5.98809 19.695 -9
      vertex -24 6 -9
      vertex -4.54452 18.4161 -9
    endloop
  endfacet
  facet normal 0 0 1
    outer loop
      vertex -7.08365 21.2822 -9
      vertex -7.76753 23.0855 -9
      vertex -24 39 -9
    endloop
  endfacet
  facet normal 0 0 1
    outer loop
      vertex -18.2124 22.9 -9
      vertex -24 6 -9
      vertex -5.98809 19.695 -9
    endloop
  endfacet
  facet normal 0 0 1
    outer loop
      vertex -15.7876 22.9 -9
      vertex -18.2124 22.9 -9
      vertex -5.98809 19.695 -9
    endloop
  endfacet
  facet normal 0 0 1
    outer loop
      vertex -19.4249 25 -9
      vertex -24 6 -9
      vertex -18.2124 22.9 -9
    endloop
  endfacet
  facet normal 0 0 1
    outer loop
      vertex -14.5751 25 -9
      vertex -15.7876 22.9 -9
      vertex -5.98809 19.695 -9
    endloop
  endfacet
  facet normal 0 0 1
    outer loop
      vertex -24 39 -9
      vertex -24 6 -9
      vertex -19.4249 25 -9
    endloop
  endfacet
  facet normal 0 0 1
    outer loop
      vertex -24 39 -9
      vertex -15.7876 27.1 -9
      vertex -5.98809 19.695 -9
    endloop
  endfacet
  facet normal 0 0 1
    outer loop
      vertex -24 39 -9
      vertex -18.2124 27.1 -9
      vertex -15.7876 27.1 -9
    endloop
  endfacet
  facet normal 0 0 1
    outer loop
      vertex -15.7876 27.1 -9
      vertex -14.5751 25 -9
      vertex -5.98809 19.695 -9
    endloop
  endfacet
  facet normal 0 0 1
    outer loop
      vertex 14.5751 25 -9
      vertex 8 25 -9
      vertex 15.7876 22.9 -9
    endloop
  endfacet
  facet normal 0 0 1
    outer loop
      vertex 19.4249 25 -9
      vertex 18.2124 22.9 -9
      vertex 24 6 -9
    endloop
  endfacet
  facet normal 0 0 1
    outer loop
      vertex 8 39 -9
      vertex 8 25 -9
      vertex 14.5751 25 -9
    endloop
  endfacet
  facet normal 0 0 1
    outer loop
      vertex 24 39 -9
      vertex 8 39 -9
      vertex 15.7876 27.1 -9
    endloop
  endfacet
  facet normal 0 0 1
    outer loop
      vertex 24 39 -9
      vertex 15.7876 27.1 -9
      vertex 18.2124 27.1 -9
    endloop
  endfacet
  facet normal 0 0 1
    outer loop
      vertex 24 39 -9
      vertex 19.4249 25 -9
      vertex 24 6 -9
    endloop
  endfacet
  facet normal 0 0 1
    outer loop
      vertex 24 39 -9
      vertex 18.2124 27.1 -9
      vertex 19.4249 25 -9
    endloop
  endfacet
  facet normal 0 0 1
    outer loop
      vertex 5.98809 19.695 -9
      vertex 4.54452 18.4161 -9
      vertex 24 6 -9
    endloop
  endfacet
  facet normal 0 0 1
    outer loop
      vertex -7.76753 23.0855 -9
      vertex -8 25 -9
      vertex -24 39 -9
    endloop
  endfacet
  facet normal 0 0 1
    outer loop
      vertex -8 25 -9
      vertex -8 39 -9
      vertex -24 39 -9
    endloop
  endfacet
  facet normal 1 0 0
    outer loop
      vertex 24 6 -9
      vertex 24 6 -20
      vertex 24 39 -20
    endloop
  endfacet
  facet normal 1 0 0
    outer loop
      vertex 24 39 -9
      vertex 24 6 -9
      vertex 24 39 -20
    endloop
  endfacet
  facet normal -1 0 0
    outer loop
      vertex 8 39 -16.97
      vertex 8 39 -20
      vertex 8 25 -16.97
    endloop
  endfacet
  facet normal -1 0 0
    outer loop
      vertex 8 25 -16.97
      vertex 8 39 -20
      vertex 8 25 -20
    endloop
  endfacet
  facet normal -0.992709 0.120536 0
    outer loop
      vertex 8 25 -16.97
      vertex 8 25 -20
      vertex 7.76753 23.0855 -16.97
    endloop
  endfacet
  facet normal -0.992709 0.120536 0
    outer loop
      vertex 7.76753 23.0855 -16.97
      vertex 8 25 -20
      vertex 7.76753 23.0855 -20
    endloop
  endfacet
  facet normal -0.935016 0.354605 0
    outer loop
      vertex 7.76753 23.0855 -16.97
      vertex 7.76753 23.0855 -20
      vertex 7.08365 21.2822 -16.97
    endloop
  endfacet
  facet normal -0.935016 0.354605 0
    outer loop
      vertex 7.08365 21.2822 -16.97
      vertex 7.76753 23.0855 -20
      vertex 7.08365 21.2822 -20
    endloop
  endfacet
  facet normal -0.822984 0.568065 0
    outer loop
      vertex 7.08365 21.2822 -16.97
      vertex 7.08365 21.2822 -20
      vertex 5.98809 19.695 -16.97
    endloop
  endfacet
  facet normal -0.822984 0.568065 0
    outer loop
      vertex 5.98809 19.695 -16.97
      vertex 7.08365 21.2822 -20
      vertex 5.98809 19.695 -20
    endloop
  endfacet
  facet normal -0.663123 0.748511 0
    outer loop
      vertex 5.98809 19.695 -16.97
      vertex 5.98809 19.695 -20
      vertex 4.54452 18.4161 -16.97
    endloop
  endfacet
  facet normal -0.663123 0.748511 0
    outer loop
      vertex 4.54452 18.4161 -16.97
      vertex 5.98809 19.695 -20
      vertex 4.54452 18.4161 -20
    endloop
  endfacet
  facet normal -0.464723 0.885456 0
    outer loop
      vertex 4.54452 18.4161 -16.97
      vertex 4.54452 18.4161 -20
      vertex 2.83684 17.5199 -16.97
    endloop
  endfacet
  facet normal -0.464723 0.885456 0
    outer loop
      vertex 2.83684 17.5199 -16.97
      vertex 4.54452 18.4161 -20
      vertex 2.83684 17.5199 -20
    endloop
  endfacet
  facet normal -0.239316 0.970942 0
    outer loop
      vertex 2.83684 17.5199 -16.97
      vertex 2.83684 17.5199 -20
      vertex 0.964293 17.0583 -16.97
    endloop
  endfacet
  facet normal -0.239316 0.970942 0
    outer loop
      vertex 0.964293 17.0583 -16.97
      vertex 2.83684 17.5199 -20
      vertex 0.964293 17.0583 -20
    endloop
  endfacet
  facet normal 0 1 0
    outer loop
      vertex 0.964293 17.0583 -16.97
      vertex 0.964293 17.0583 -20
      vertex -0.964293 17.0583 -16.97
    endloop
  endfacet
  facet normal 0 1 0
    outer loop
      vertex -0.964293 17.0583 -16.97
      vertex 0.964293 17.0583 -20
      vertex -0.964293 17.0583 -20
    endloop
  endfacet
  facet normal 0.239316 0.970942 0
    outer loop
      vertex -0.964293 17.0583 -16.97
      vertex -0.964293 17.0583 -20
      vertex -2.83684 17.5199 -16.97
    endloop
  endfacet
  facet normal 0.239316 0.970942 0
    outer loop
      vertex -2.83684 17.5199 -16.97
      vertex -0.964293 17.0583 -20
      vertex -2.83684 17.5199 -20
    endloop
  endfacet
  facet normal 0.464723 0.885456 0
    outer loop
      vertex -2.83684 17.5199 -16.97
      vertex -2.83684 17.5199 -20
      vertex -4.54452 18.4161 -16.97
    endloop
  endfacet
  facet normal 0.464723 0.885456 0
    outer loop
      vertex -4.54452 18.4161 -16.97
      vertex -2.83684 17.5199 -20
      vertex -4.54452 18.4161 -20
    endloop
  endfacet
  facet normal 0.663123 0.748511 0
    outer loop
      vertex -4.54452 18.4161 -16.97
      vertex -4.54452 18.4161 -20
      vertex -5.98809 19.695 -16.97
    endloop
  endfacet
  facet normal 0.663123 0.748511 0
    outer loop
      vertex -5.98809 19.695 -16.97
      vertex -4.54452 18.4161 -20
      vertex -5.98809 19.695 -20
    endloop
  endfacet
  facet normal 0.822984 0.568065 0
    outer loop
      vertex -7.08365 21.2822 -16.97
      vertex -5.98809 19.695 -16.97
      vertex -5.98809 19.695 -20
    endloop
  endfacet
  facet normal 0.822984 0.568065 0
    outer loop
      vertex -7.08365 21.2822 -20
      vertex -7.08365 21.2822 -16.97
      vertex -5.98809 19.695 -20
    endloop
  endfacet
  facet normal 0.935016 0.354605 0
    outer loop
      vertex -7.76753 23.0855 -16.97
      vertex -7.08365 21.2822 -16.97
      vertex -7.08365 21.2822 -20
    endloop
  endfacet
  facet normal 0.935016 0.354605 0
    outer loop
      vertex -7.76753 23.0855 -20
      vertex -7.76753 23.0855 -16.97
      vertex -7.08365 21.2822 -20
    endloop
  endfacet
  facet normal 0.992709 0.120536 0
    outer loop
      vertex -8 25 -16.97
      vertex -7.76753 23.0855 -16.97
      vertex -7.76753 23.0855 -20
    endloop
  endfacet
  facet normal 0.992709 0.120536 0
    outer loop
      vertex -8 25 -20
      vertex -8 25 -16.97
      vertex -7.76753 23.0855 -20
    endloop
  endfacet
  facet normal 1 0 0
    outer loop
      vertex -8 39 -20
      vertex -8 39 -16.97
      vertex -8 25 -16.97
    endloop
  endfacet
  facet normal 1 0 0
    outer loop
      vertex -8 25 -20
      vertex -8 39 -20
      vertex -8 25 -16.97
    endloop
  endfacet
  facet normal 0.866025 -0.5 0
    outer loop
      vertex -18.975 28.4208 -20
      vertex -18.975 28.4208 -18.01
      vertex -20.95 25 -18.01
    endloop
  endfacet
  facet normal 0.866025 -0.5 0
    outer loop
      vertex -20.95 25 -20
      vertex -18.975 28.4208 -20
      vertex -20.95 25 -18.01
    endloop
  endfacet
  facet normal 0.866025 0.5 0
    outer loop
      vertex -20.95 25 -18.01
      vertex -18.975 21.5792 -18.01
      vertex -18.975 21.5792 -20
    endloop
  endfacet
  facet normal 0.866025 0.5 0
    outer loop
      vertex -20.95 25 -20
      vertex -20.95 25 -18.01
      vertex -18.975 21.5792 -20
    endloop
  endfacet
  facet normal 0 -1 0
    outer loop
      vertex -15.025 28.4208 -20
      vertex -15.025 28.4208 -18.01
      vertex -18.975 28.4208 -18.01
    endloop
  endfacet
  facet normal 0 -1 0
    outer loop
      vertex -18.975 28.4208 -20
      vertex -15.025 28.4208 -20
      vertex -18.975 28.4208 -18.01
    endloop
  endfacet
  facet normal -0.866025 -0.5 0
    outer loop
      vertex -13.05 25 -18.01
      vertex -15.025 28.4208 -18.01
      vertex -13.05 25 -20
    endloop
  endfacet
  facet normal -0.866025 -0.5 0
    outer loop
      vertex -13.05 25 -20
      vertex -15.025 28.4208 -18.01
      vertex -15.025 28.4208 -20
    endloop
  endfacet
  facet normal -0.866025 0.5 0
    outer loop
      vertex -13.05 25 -18.01
      vertex -13.05 25 -20
      vertex -15.025 21.5792 -18.01
    endloop
  endfacet
  facet normal -0.866025 0.5 0
    outer loop
      vertex -15.025 21.5792 -18.01
      vertex -13.05 25 -20
      vertex -15.025 21.5792 -20
    endloop
  endfacet
  facet normal 0 1 0
    outer loop
      vertex -15.025 21.5792 -18.01
      vertex -15.025 21.5792 -20
      vertex -18.975 21.5792 -18.01
    endloop
  endfacet
  facet normal 0 1 0
    outer loop
      vertex -18.975 21.5792 -18.01
      vertex -15.025 21.5792 -20
      vertex -18.975 21.5792 -20
    endloop
  endfacet
  facet normal 0.866025 -0.5 0
    outer loop
      vertex 15.025 28.4208 -20
      vertex 15.025 28.4208 -18.01
      vertex 13.05 25 -18.01
    endloop
  endfacet
  facet normal 0.866025 -0.5 0
    outer loop
      vertex 13.05 25 -20
      vertex 15.025 28.4208 -20
      vertex 13.05 25 -18.01
    endloop
  endfacet
  facet normal 0.866025 0.5 0
    outer loop
      vertex 13.05 25 -18.01
      vertex 15.025 21.5792 -18.01
      vertex 15.025 21.5792 -20
    endloop
  endfacet
  facet normal 0.866025 0.5 0
    outer loop
      vertex 13.05 25 -20
      vertex 13.05 25 -18.01
      vertex 15.025 21.5792 -20
    endloop
  endfacet
  facet normal 0 -1 0
    outer loop
      vertex 18.975 28.4208 -20
      vertex 18.975 28.4208 -18.01
      vertex 15.025 28.4208 -18.01
    endloop
  endfacet
  facet normal 0 -1 0
    outer loop
      vertex 15.025 28.4208 -20
      vertex 18.975 28.4208 -20
      vertex 15.025 28.4208 -18.01
    endloop
  endfacet
  facet normal -0.866025 -0.5 0
    outer loop
      vertex 20.95 25 -18.01
      vertex 18.975 28.4208 -18.01
      vertex 20.95 25 -20
    endloop
  endfacet
  facet normal -0.866025 -0.5 0
    outer loop
      vertex 20.95 25 -20
      vertex 18.975 28.4208 -18.01
      vertex 18.975 28.4208 -20
    endloop
  endfacet
  facet normal -0.866025 0.5 0
    outer loop
      vertex 20.95 25 -18.01
      vertex 20.95 25 -20
      vertex 18.975 21.5792 -18.01
    endloop
  endfacet
  facet normal -0.866025 0.5 0
    outer loop
      vertex 18.975 21.5792 -18.01
      vertex 20.95 25 -20
      vertex 18.975 21.5792 -20
    endloop
  endfacet
  facet normal 0 1 0
    outer loop
      vertex 18.975 21.5792 -18.01
      vertex 18.975 21.5792 -20
      vertex 15.025 21.5792 -18.01
    endloop
  endfacet
  facet normal 0 1 0
    outer loop
      vertex 15.025 21.5792 -18.01
      vertex 18.975 21.5792 -20
      vertex 15.025 21.5792 -20
    endloop
  endfacet
  facet normal 0 0 -1
    outer loop
      vertex 8 39 -16.97
      vertex 8 25 -16.97
      vertex -8 39 -16.97
    endloop
  endfacet
  facet normal 0 0 -1
    outer loop
      vertex -8 39 -16.97
      vertex 8 25 -16.97
      vertex 7.76753 23.0855 -16.97
    endloop
  endfacet
  facet normal 0 0 -1
    outer loop
      vertex -8 39 -16.97
      vertex 7.76753 23.0855 -16.97
      vertex 7.08365 21.2822 -16.97
    endloop
  endfacet
  facet normal 0 0 -1
    outer loop
      vertex -8 39 -16.97
      vertex 7.08365 21.2822 -16.97
      vertex 5.98809 19.695 -16.97
    endloop
  endfacet
  facet normal 0 0 -1
    outer loop
      vertex -8 39 -16.97
      vertex 5.98809 19.695 -16.97
      vertex 4.54452 18.4161 -16.97
    endloop
  endfacet
  facet normal 0 0 -1
    outer loop
      vertex -8 39 -16.97
      vertex 4.54452 18.4161 -16.97
      vertex 2.83684 17.5199 -16.97
    endloop
  endfacet
  facet normal 0 0 -1
    outer loop
      vertex -8 39 -16.97
      vertex 2.83684 17.5199 -16.97
      vertex 0.964293 17.0583 -16.97
    endloop
  endfacet
  facet normal 0 0 -1
    outer loop
      vertex -8 39 -16.97
      vertex 0.964293 17.0583 -16.97
      vertex -0.964293 17.0583 -16.97
    endloop
  endfacet
  facet normal 0 0 -1
    outer loop
      vertex -8 39 -16.97
      vertex -0.964293 17.0583 -16.97
      vertex -2.83684 17.5199 -16.97
    endloop
  endfacet
  facet normal 0 0 -1
    outer loop
      vertex -8 39 -16.97
      vertex -2.83684 17.5199 -16.97
      vertex -4.54452 18.4161 -16.97
    endloop
  endfacet
  facet normal 0 0 -1
    outer loop
      vertex -8 39 -16.97
      vertex -4.54452 18.4161 -16.97
      vertex -5.98809 19.695 -16.97
    endloop
  endfacet
  facet normal 0 0 -1
    outer loop
      vertex -8 39 -16.97
      vertex -5.98809 19.695 -16.97
      vertex -7.08365 21.2822 -16.97
    endloop
  endfacet
  facet normal 0 0 -1
    outer loop
      vertex -8 39 -16.97
      vertex -7.08365 21.2822 -16.97
      vertex -7.76753 23.0855 -16.97
    endloop
  endfacet
  facet normal 0 0 -1
    outer loop
      vertex -8 39 -16.97
      vertex -7.76753 23.0855 -16.97
      vertex -8 25 -16.97
    endloop
  endfacet
  facet normal -1 0 0
    outer loop
      vertex 8 39 -9
      vertex 8 39 -11.49
      vertex 8 25 -9
    endloop
  endfacet
  facet normal -1 0 0
    outer loop
      vertex 8 25 -9
      vertex 8 39 -11.49
      vertex 8 25 -11.49
    endloop
  endfacet
  facet normal 0 0 1
    outer loop
      vertex -7.76753 23.0855 -11.49
      vertex -7.08365 21.2822 -11.49
      vertex -5.98809 19.695 -11.49
    endloop
  endfacet
  facet normal 0 0 1
    outer loop
      vertex -2.83684 17.5199 -11.49
      vertex -7.76753 23.0855 -11.49
      vertex -4.54452 18.4161 -11.49
    endloop
  endfacet
  facet normal 0 0 1
    outer loop
      vertex -4.54452 18.4161 -11.49
      vertex -7.76753 23.0855 -11.49
      vertex -5.98809 19.695 -11.49
    endloop
  endfacet
  facet normal 0 0 1
    outer loop
      vertex -0.964293 17.0583 -11.49
      vertex -7.76753 23.0855 -11.49
      vertex -2.83684 17.5199 -11.49
    endloop
  endfacet
  facet normal 0 0 1
    outer loop
      vertex 0.964293 17.0583 -11.49
      vertex -7.76753 23.0855 -11.49
      vertex -0.964293 17.0583 -11.49
    endloop
  endfacet
  facet normal 0 0 1
    outer loop
      vertex -4.06369 20.5857 -11.49
      vertex -7.76753 23.0855 -11.49
      vertex 0.964293 17.0583 -11.49
    endloop
  endfacet
  facet normal 0 0 1
    outer loop
      vertex 1.47291 19.1836 -11.49
      vertex -0.495476 19.0205 -11.49
      vertex 2.83684 17.5199 -11.49
    endloop
  endfacet
  facet normal 0 0 1
    outer loop
      vertex 4.73484 21.3147 -11.49
      vertex 3.28169 19.977 -11.49
      vertex 5.98809 19.695 -11.49
    endloop
  endfacet
  facet normal 0 0 1
    outer loop
      vertex 5.6749 23.0518 -11.49
      vertex 4.73484 21.3147 -11.49
      vertex 7.08365 21.2822 -11.49
    endloop
  endfacet
  facet normal 0 0 1
    outer loop
      vertex 3.28169 19.977 -11.49
      vertex 1.47291 19.1836 -11.49
      vertex 4.54452 18.4161 -11.49
    endloop
  endfacet
  facet normal 0 0 1
    outer loop
      vertex 6 25 -11.49
      vertex 5.6749 23.0518 -11.49
      vertex 7.76753 23.0855 -11.49
    endloop
  endfacet
  facet normal 0 0 1
    outer loop
      vertex 8 39 -11.49
      vertex 6 25 -11.49
      vertex 8 25 -11.49
    endloop
  endfacet
  facet normal 0 0 1
    outer loop
      vertex 7.76753 23.0855 -11.49
      vertex 5.6749 23.0518 -11.49
      vertex 7.08365 21.2822 -11.49
    endloop
  endfacet
  facet normal 0 0 1
    outer loop
      vertex 7.08365 21.2822 -11.49
      vertex 4.73484 21.3147 -11.49
      vertex 5.98809 19.695 -11.49
    endloop
  endfacet
  facet normal 0 0 1
    outer loop
      vertex 5.98809 19.695 -11.49
      vertex 3.28169 19.977 -11.49
      vertex 4.54452 18.4161 -11.49
    endloop
  endfacet
  facet normal 0 0 1
    outer loop
      vertex 4.54452 18.4161 -11.49
      vertex 1.47291 19.1836 -11.49
      vertex 2.83684 17.5199 -11.49
    endloop
  endfacet
  facet normal 0 0 1
    outer loop
      vertex 2.83684 17.5199 -11.49
      vertex -0.495476 19.0205 -11.49
      vertex 0.964293 17.0583 -11.49
    endloop
  endfacet
  facet normal 0 0 1
    outer loop
      vertex -0.495476 19.0205 -11.49
      vertex -2.41017 19.5054 -11.49
      vertex 0.964293 17.0583 -11.49
    endloop
  endfacet
  facet normal 0 0 1
    outer loop
      vertex -2.41017 19.5054 -11.49
      vertex -4.06369 20.5857 -11.49
      vertex 0.964293 17.0583 -11.49
    endloop
  endfacet
  facet normal 0 0 1
    outer loop
      vertex -6 25 -11.49
      vertex -6 39 -11.49
      vertex -7.76753 23.0855 -11.49
    endloop
  endfacet
  facet normal 0 0 1
    outer loop
      vertex 6 25 -11.49
      vertex 7.76753 23.0855 -11.49
      vertex 8 25 -11.49
    endloop
  endfacet
  facet normal 0 0 1
    outer loop
      vertex -4.06369 20.5857 -11.49
      vertex -5.27684 22.1443 -11.49
      vertex -7.76753 23.0855 -11.49
    endloop
  endfacet
  facet normal 0 0 1
    outer loop
      vertex -6 25 -11.49
      vertex -7.76753 23.0855 -11.49
      vertex -5.91817 25 -11.49
    endloop
  endfacet
  facet normal 0 0 1
    outer loop
      vertex -8 39 -11.49
      vertex -7.76753 23.0855 -11.49
      vertex -6 39 -11.49
    endloop
  endfacet
  facet normal 0 0 1
    outer loop
      vertex -8 25 -11.49
      vertex -7.76753 23.0855 -11.49
      vertex -8 39 -11.49
    endloop
  endfacet
  facet normal 0 0 1
    outer loop
      vertex -5.91817 24.0124 -11.49
      vertex -5.91817 25 -11.49
      vertex -7.76753 23.0855 -11.49
    endloop
  endfacet
  facet normal 0 0 1
    outer loop
      vertex 6 39 -11.49
      vertex 6 25 -11.49
      vertex 8 39 -11.49
    endloop
  endfacet
  facet normal 0 0 1
    outer loop
      vertex -5.27684 22.1443 -11.49
      vertex -5.91817 24.0124 -11.49
      vertex -7.76753 23.0855 -11.49
    endloop
  endfacet
  facet normal -1 0 0
    outer loop
      vertex 6 39 -11.49
      vertex 6 39 -16.51
      vertex 6 25 -11.49
    endloop
  endfacet
  facet normal -1 0 0
    outer loop
      vertex 6 25 -11.49
      vertex 6 39 -16.51
      vertex 6 25 -16.51
    endloop
  endfacet
  facet normal 0 0 1
    outer loop
      vertex -5.91817 25 -16.51
      vertex -5.91817 24.0124 -16.51
      vertex -5.27684 22.1443 -16.51
    endloop
  endfacet
  facet normal 0 0 1
    outer loop
      vertex -2.41017 19.5054 -16.51
      vertex -5.91817 25 -16.51
      vertex -4.06369 20.5857 -16.51
    endloop
  endfacet
  facet normal 0 0 1
    outer loop
      vertex -4.06369 20.5857 -16.51
      vertex -5.91817 25 -16.51
      vertex -5.27684 22.1443 -16.51
    endloop
  endfacet
  facet normal 0 0 1
    outer loop
      vertex -0.495476 19.0205 -16.51
      vertex -5.91817 25 -16.51
      vertex -2.41017 19.5054 -16.51
    endloop
  endfacet
  facet normal 0 0 1
    outer loop
      vertex 1.47291 19.1836 -16.51
      vertex -5.91817 25 -16.51
      vertex -0.495476 19.0205 -16.51
    endloop
  endfacet
  facet normal 0 0 1
    outer loop
      vertex 3.28169 19.977 -16.51
      vertex -5.91817 25 -16.51
      vertex 1.47291 19.1836 -16.51
    endloop
  endfacet
  facet normal 0 0 1
    outer loop
      vertex 4.73484 21.3147 -16.51
      vertex -5.91817 25 -16.51
      vertex 3.28169 19.977 -16.51
    endloop
  endfacet
  facet normal 0 0 1
    outer loop
      vertex 5.6749 23.0518 -16.51
      vertex -5.91817 25 -16.51
      vertex 4.73484 21.3147 -16.51
    endloop
  endfacet
  facet normal 0 0 1
    outer loop
      vertex 6 25 -16.51
      vertex -5.91817 25 -16.51
      vertex 5.6749 23.0518 -16.51
    endloop
  endfacet
  facet normal 0 0 1
    outer loop
      vertex 6 39 -16.51
      vertex -5.91817 25 -16.51
      vertex 6 25 -16.51
    endloop
  endfacet
  facet normal 0 0 1
    outer loop
      vertex -6 39 -16.51
      vertex -5.91817 25 -16.51
      vertex 6 39 -16.51
    endloop
  endfacet
  facet normal 0 0 1
    outer loop
      vertex -6 25 -16.51
      vertex -5.91817 25 -16.51
      vertex -6 39 -16.51
    endloop
  endfacet
  facet normal 1 0 0
    outer loop
      vertex -6 39 -16.51
      vertex -6 39 -11.49
      vertex -6 25 -11.49
    endloop
  endfacet
  facet normal 1 0 0
    outer loop
      vertex -6 25 -16.51
      vertex -6 39 -16.51
      vertex -6 25 -11.49
    endloop
  endfacet
  facet normal 1 0 0
    outer loop
      vertex -8 39 -11.49
      vertex -8 39 -9
      vertex -8 25 -9
    endloop
  endfacet
  facet normal 1 0 0
    outer loop
      vertex -8 25 -11.49
      vertex -8 39 -11.49
      vertex -8 25 -9
    endloop
  endfacet
  facet normal 0.992709 0.120536 0
    outer loop
      vertex -8 25 -9
      vertex -7.76753 23.0855 -9
      vertex -7.76753 23.0855 -11.49
    endloop
  endfacet
  facet normal 0.992709 0.120536 0
    outer loop
      vertex -8 25 -11.49
      vertex -8 25 -9
      vertex -7.76753 23.0855 -11.49
    endloop
  endfacet
  facet normal 0.935016 0.354605 0
    outer loop
      vertex -7.76753 23.0855 -9
      vertex -7.08365 21.2822 -9
      vertex -7.08365 21.2822 -11.49
    endloop
  endfacet
  facet normal 0.935016 0.354605 0
    outer loop
      vertex -7.76753 23.0855 -11.49
      vertex -7.76753 23.0855 -9
      vertex -7.08365 21.2822 -11.49
    endloop
  endfacet
  facet normal 0.822984 0.568065 0
    outer loop
      vertex -7.08365 21.2822 -9
      vertex -5.98809 19.695 -9
      vertex -5.98809 19.695 -11.49
    endloop
  endfacet
  facet normal 0.822984 0.568065 0
    outer loop
      vertex -7.08365 21.2822 -11.49
      vertex -7.08365 21.2822 -9
      vertex -5.98809 19.695 -11.49
    endloop
  endfacet
  facet normal 0.663123 0.748511 0
    outer loop
      vertex -4.54452 18.4161 -9
      vertex -4.54452 18.4161 -11.49
      vertex -5.98809 19.695 -9
    endloop
  endfacet
  facet normal 0.663123 0.748511 0
    outer loop
      vertex -5.98809 19.695 -9
      vertex -4.54452 18.4161 -11.49
      vertex -5.98809 19.695 -11.49
    endloop
  endfacet
  facet normal 0.464723 0.885456 0
    outer loop
      vertex -2.83684 17.5199 -9
      vertex -2.83684 17.5199 -11.49
      vertex -4.54452 18.4161 -9
    endloop
  endfacet
  facet normal 0.464723 0.885456 0
    outer loop
      vertex -4.54452 18.4161 -9
      vertex -2.83684 17.5199 -11.49
      vertex -4.54452 18.4161 -11.49
    endloop
  endfacet
  facet normal 0.239316 0.970942 0
    outer loop
      vertex -0.964293 17.0583 -9
      vertex -0.964293 17.0583 -11.49
      vertex -2.83684 17.5199 -9
    endloop
  endfacet
  facet normal 0.239316 0.970942 0
    outer loop
      vertex -2.83684 17.5199 -9
      vertex -0.964293 17.0583 -11.49
      vertex -2.83684 17.5199 -11.49
    endloop
  endfacet
  facet normal 0 1 0
    outer loop
      vertex 0.964293 17.0583 -9
      vertex 0.964293 17.0583 -11.49
      vertex -0.964293 17.0583 -9
    endloop
  endfacet
  facet normal 0 1 0
    outer loop
      vertex -0.964293 17.0583 -9
      vertex 0.964293 17.0583 -11.49
      vertex -0.964293 17.0583 -11.49
    endloop
  endfacet
  facet normal -0.239316 0.970942 0
    outer loop
      vertex 2.83684 17.5199 -9
      vertex 2.83684 17.5199 -11.49
      vertex 0.964293 17.0583 -9
    endloop
  endfacet
  facet normal -0.239316 0.970942 0
    outer loop
      vertex 0.964293 17.0583 -9
      vertex 2.83684 17.5199 -11.49
      vertex 0.964293 17.0583 -11.49
    endloop
  endfacet
  facet normal -0.464723 0.885456 0
    outer loop
      vertex 4.54452 18.4161 -9
      vertex 4.54452 18.4161 -11.49
      vertex 2.83684 17.5199 -9
    endloop
  endfacet
  facet normal -0.464723 0.885456 0
    outer loop
      vertex 2.83684 17.5199 -9
      vertex 4.54452 18.4161 -11.49
      vertex 2.83684 17.5199 -11.49
    endloop
  endfacet
  facet normal -0.663123 0.748511 0
    outer loop
      vertex 5.98809 19.695 -9
      vertex 5.98809 19.695 -11.49
      vertex 4.54452 18.4161 -9
    endloop
  endfacet
  facet normal -0.663123 0.748511 0
    outer loop
      vertex 4.54452 18.4161 -9
      vertex 5.98809 19.695 -11.49
      vertex 4.54452 18.4161 -11.49
    endloop
  endfacet
  facet normal -0.822984 0.568065 0
    outer loop
      vertex 7.08365 21.2822 -9
      vertex 7.08365 21.2822 -11.49
      vertex 5.98809 19.695 -9
    endloop
  endfacet
  facet normal -0.822984 0.568065 0
    outer loop
      vertex 5.98809 19.695 -9
      vertex 7.08365 21.2822 -11.49
      vertex 5.98809 19.695 -11.49
    endloop
  endfacet
  facet normal -0.935016 0.354605 0
    outer loop
      vertex 7.76753 23.0855 -9
      vertex 7.76753 23.0855 -11.49
      vertex 7.08365 21.2822 -9
    endloop
  endfacet
  facet normal -0.935016 0.354605 0
    outer loop
      vertex 7.08365 21.2822 -9
      vertex 7.76753 23.0855 -11.49
      vertex 7.08365 21.2822 -11.49
    endloop
  endfacet
  facet normal -0.992709 0.120536 0
    outer loop
      vertex 8 25 -9
      vertex 8 25 -11.49
      vertex 7.76753 23.0855 -9
    endloop
  endfacet
  facet normal -0.992709 0.120536 0
    outer loop
      vertex 7.76753 23.0855 -9
      vertex 8 25 -11.49
      vertex 7.76753 23.0855 -11.49
    endloop
  endfacet
  facet normal 0.866026 0.5 0
    outer loop
      vertex -19.4249 25 -9
      vertex -18.2124 22.9 -9
      vertex -18.2124 22.9 -17.5
    endloop
  endfacet
  facet normal 0.866026 0.5 0
    outer loop
      vertex -19.4249 25 -17.5
      vertex -19.4249 25 -9
      vertex -18.2124 22.9 -17.5
    endloop
  endfacet
  facet normal 0 1 0
    outer loop
      vertex -15.7876 22.9 -9
      vertex -15.7876 22.9 -17.5
      vertex -18.2124 22.9 -9
    endloop
  endfacet
  facet normal 0 1 0
    outer loop
      vertex -18.2124 22.9 -9
      vertex -15.7876 22.9 -17.5
      vertex -18.2124 22.9 -17.5
    endloop
  endfacet
  facet normal -0.866026 0.5 0
    outer loop
      vertex -14.5751 25 -9
      vertex -14.5751 25 -17.5
      vertex -15.7876 22.9 -9
    endloop
  endfacet
  facet normal -0.866026 0.5 0
    outer loop
      vertex -15.7876 22.9 -9
      vertex -14.5751 25 -17.5
      vertex -15.7876 22.9 -17.5
    endloop
  endfacet
  facet normal -0.866026 -0.5 0
    outer loop
      vertex -14.5751 25 -9
      vertex -15.7876 27.1 -9
      vertex -14.5751 25 -17.5
    endloop
  endfacet
  facet normal -0.866026 -0.5 0
    outer loop
      vertex -14.5751 25 -17.5
      vertex -15.7876 27.1 -9
      vertex -15.7876 27.1 -17.5
    endloop
  endfacet
  facet normal 0 -1 0
    outer loop
      vertex -15.7876 27.1 -17.5
      vertex -15.7876 27.1 -9
      vertex -18.2124 27.1 -9
    endloop
  endfacet
  facet normal 0 -1 0
    outer loop
      vertex -18.2124 27.1 -17.5
      vertex -15.7876 27.1 -17.5
      vertex -18.2124 27.1 -9
    endloop
  endfacet
  facet normal 0.866026 -0.5 0
    outer loop
      vertex -18.2124 27.1 -17.5
      vertex -18.2124 27.1 -9
      vertex -19.4249 25 -9
    endloop
  endfacet
  facet normal 0.866026 -0.5 0
    outer loop
      vertex -19.4249 25 -17.5
      vertex -18.2124 27.1 -17.5
      vertex -19.4249 25 -9
    endloop
  endfacet
  facet normal 0.866026 0.5 0
    outer loop
      vertex 14.5751 25 -9
      vertex 15.7876 22.9 -9
      vertex 15.7876 22.9 -17.5
    endloop
  endfacet
  facet normal 0.866026 0.5 0
    outer loop
      vertex 14.5751 25 -17.5
      vertex 14.5751 25 -9
      vertex 15.7876 22.9 -17.5
    endloop
  endfacet
  facet normal 0 1 0
    outer loop
      vertex 18.2124 22.9 -9
      vertex 18.2124 22.9 -17.5
      vertex 15.7876 22.9 -9
    endloop
  endfacet
  facet normal 0 1 0
    outer loop
      vertex 15.7876 22.9 -9
      vertex 18.2124 22.9 -17.5
      vertex 15.7876 22.9 -17.5
    endloop
  endfacet
  facet normal -0.866026 0.5 0
    outer loop
      vertex 19.4249 25 -9
      vertex 19.4249 25 -17.5
      vertex 18.2124 22.9 -9
    endloop
  endfacet
  facet normal -0.866026 0.5 0
    outer loop
      vertex 18.2124 22.9 -9
      vertex 19.4249 25 -17.5
      vertex 18.2124 22.9 -17.5
    endloop
  endfacet
  facet normal -0.866026 -0.5 0
    outer loop
      vertex 19.4249 25 -9
      vertex 18.2124 27.1 -9
      vertex 19.4249 25 -17.5
    endloop
  endfacet
  facet normal -0.866026 -0.5 0
    outer loop
      vertex 19.4249 25 -17.5
      vertex 18.2124 27.1 -9
      vertex 18.2124 27.1 -17.5
    endloop
  endfacet
  facet normal 0 -1 0
    outer loop
      vertex 18.2124 27.1 -17.5
      vertex 18.2124 27.1 -9
      vertex 15.7876 27.1 -9
    endloop
  endfacet
  facet normal 0 -1 0
    outer loop
      vertex 15.7876 27.1 -17.5
      vertex 18.2124 27.1 -17.5
      vertex 15.7876 27.1 -9
    endloop
  endfacet
  facet normal 0.866026 -0.5 0
    outer loop
      vertex 15.7876 27.1 -17.5
      vertex 15.7876 27.1 -9
      vertex 14.5751 25 -9
    endloop
  endfacet
  facet normal 0.866026 -0.5 0
    outer loop
      vertex 14.5751 25 -17.5
      vertex 15.7876 27.1 -17.5
      vertex 14.5751 25 -9
    endloop
  endfacet
  facet normal 0 0 -1
    outer loop
      vertex -15.025 28.4208 -18.01
      vertex -13.05 25 -18.01
      vertex -18.975 28.4208 -18.01
    endloop
  endfacet
  facet normal 0 0 -1
    outer loop
      vertex -18.975 28.4208 -18.01
      vertex -13.05 25 -18.01
      vertex -15.025 21.5792 -18.01
    endloop
  endfacet
  facet normal 0 0 -1
    outer loop
      vertex -18.975 28.4208 -18.01
      vertex -15.025 21.5792 -18.01
      vertex -18.975 21.5792 -18.01
    endloop
  endfacet
  facet normal 0 0 -1
    outer loop
      vertex -18.975 28.4208 -18.01
      vertex -18.975 21.5792 -18.01
      vertex -20.95 25 -18.01
    endloop
  endfacet
  facet normal 0 0 -1
    outer loop
      vertex 18.975 28.4208 -18.01
      vertex 20.95 25 -18.01
      vertex 15.025 28.4208 -18.01
    endloop
  endfacet
  facet normal 0 0 -1
    outer loop
      vertex 15.025 28.4208 -18.01
      vertex 20.95 25 -18.01
      vertex 18.975 21.5792 -18.01
    endloop
  endfacet
  facet normal 0 0 -1
    outer loop
      vertex 15.025 28.4208 -18.01
      vertex 18.975 21.5792 -18.01
      vertex 15.025 21.5792 -18.01
    endloop
  endfacet
  facet normal 0 0 -1
    outer loop
      vertex 15.025 28.4208 -18.01
      vertex 15.025 21.5792 -18.01
      vertex 13.05 25 -18.01
    endloop
  endfacet
  facet normal 0 1 0
    outer loop
      vertex -5.91817 25 -11.49
      vertex -5.91817 25 -16.51
      vertex -6 25 -11.49
    endloop
  endfacet
  facet normal 0 1 0
    outer loop
      vertex -6 25 -11.49
      vertex -5.91817 25 -16.51
      vertex -6 25 -16.51
    endloop
  endfacet
  facet normal 1 0 0
    outer loop
      vertex -5.91817 25 -16.51
      vertex -5.91817 25 -11.49
      vertex -5.91817 24.0124 -11.49
    endloop
  endfacet
  facet normal 1 0 0
    outer loop
      vertex -5.91817 24.0124 -16.51
      vertex -5.91817 25 -16.51
      vertex -5.91817 24.0124 -11.49
    endloop
  endfacet
  facet normal 0.945817 0.324699 0
    outer loop
      vertex -5.91817 24.0124 -11.49
      vertex -5.27684 22.1443 -11.49
      vertex -5.27684 22.1443 -16.51
    endloop
  endfacet
  facet normal 0.945817 0.324699 0
    outer loop
      vertex -5.91817 24.0124 -16.51
      vertex -5.91817 24.0124 -11.49
      vertex -5.27684 22.1443 -16.51
    endloop
  endfacet
  facet normal 0.78914 0.614213 0
    outer loop
      vertex -5.27684 22.1443 -11.49
      vertex -4.06369 20.5857 -11.49
      vertex -4.06369 20.5857 -16.51
    endloop
  endfacet
  facet normal 0.78914 0.614213 0
    outer loop
      vertex -5.27684 22.1443 -16.51
      vertex -5.27684 22.1443 -11.49
      vertex -4.06369 20.5857 -16.51
    endloop
  endfacet
  facet normal 0.546949 0.837166 0
    outer loop
      vertex -2.41017 19.5054 -11.49
      vertex -2.41017 19.5054 -16.51
      vertex -4.06369 20.5857 -11.49
    endloop
  endfacet
  facet normal 0.546949 0.837166 0
    outer loop
      vertex -4.06369 20.5857 -11.49
      vertex -2.41017 19.5054 -16.51
      vertex -4.06369 20.5857 -16.51
    endloop
  endfacet
  facet normal 0.245485 0.9694 0
    outer loop
      vertex -0.495476 19.0205 -11.49
      vertex -0.495476 19.0205 -16.51
      vertex -2.41017 19.5054 -11.49
    endloop
  endfacet
  facet normal 0.245485 0.9694 0
    outer loop
      vertex -2.41017 19.5054 -11.49
      vertex -0.495476 19.0205 -16.51
      vertex -2.41017 19.5054 -16.51
    endloop
  endfacet
  facet normal -0.0825792 0.996585 0
    outer loop
      vertex 1.47291 19.1836 -11.49
      vertex 1.47291 19.1836 -16.51
      vertex -0.495476 19.0205 -11.49
    endloop
  endfacet
  facet normal -0.0825792 0.996585 0
    outer loop
      vertex -0.495476 19.0205 -11.49
      vertex 1.47291 19.1836 -16.51
      vertex -0.495476 19.0205 -16.51
    endloop
  endfacet
  facet normal -0.401696 0.915773 0
    outer loop
      vertex 3.28169 19.977 -11.49
      vertex 3.28169 19.977 -16.51
      vertex 1.47291 19.1836 -11.49
    endloop
  endfacet
  facet normal -0.401696 0.915773 0
    outer loop
      vertex 1.47291 19.1836 -11.49
      vertex 3.28169 19.977 -16.51
      vertex 1.47291 19.1836 -16.51
    endloop
  endfacet
  facet normal -0.677282 0.735724 0
    outer loop
      vertex 4.73484 21.3147 -11.49
      vertex 4.73484 21.3147 -16.51
      vertex 3.28169 19.977 -11.49
    endloop
  endfacet
  facet normal -0.677282 0.735724 0
    outer loop
      vertex 3.28169 19.977 -11.49
      vertex 4.73484 21.3147 -16.51
      vertex 3.28169 19.977 -16.51
    endloop
  endfacet
  facet normal -0.879474 0.475947 0
    outer loop
      vertex 5.6749 23.0518 -11.49
      vertex 5.6749 23.0518 -16.51
      vertex 4.73484 21.3147 -11.49
    endloop
  endfacet
  facet normal -0.879474 0.475947 0
    outer loop
      vertex 4.73484 21.3147 -11.49
      vertex 5.6749 23.0518 -16.51
      vertex 4.73484 21.3147 -16.51
    endloop
  endfacet
  facet normal -0.986361 0.164595 0
    outer loop
      vertex 6 25 -11.49
      vertex 6 25 -16.51
      vertex 5.6749 23.0518 -11.49
    endloop
  endfacet
  facet normal -0.986361 0.164595 0
    outer loop
      vertex 5.6749 23.0518 -11.49
      vertex 6 25 -16.51
      vertex 5.6749 23.0518 -16.51
    endloop
  endfacet
  facet normal 0 0 1
    outer loop
      vertex -18.2124 22.9 -17.5
      vertex -15.7876 22.9 -17.5
      vertex -14.5751 25 -17.5
    endloop
  endfacet
  facet normal 0 0 1
    outer loop
      vertex -18.2124 27.1 -17.5
      vertex -18.2124 22.9 -17.5
      vertex -15.7876 27.1 -17.5
    endloop
  endfacet
  facet normal 0 0 1
    outer loop
      vertex -15.7876 27.1 -17.5
      vertex -18.2124 22.9 -17.5
      vertex -14.5751 25 -17.5
    endloop
  endfacet
  facet normal 0 0 1
    outer loop
      vertex -19.4249 25 -17.5
      vertex -18.2124 22.9 -17.5
      vertex -18.2124 27.1 -17.5
    endloop
  endfacet
  facet normal 0 0 1
    outer loop
      vertex 15.7876 22.9 -17.5
      vertex 18.2124 22.9 -17.5
      vertex 19.4249 25 -17.5
    endloop
  endfacet
  facet normal 0 0 1
    outer loop
      vertex 15.7876 27.1 -17.5
      vertex 15.7876 22.9 -17.5
      vertex 18.2124 27.1 -17.5
    endloop
  endfacet
  facet normal 0 0 1
    outer loop
      vertex 18.2124 27.1 -17.5
      vertex 15.7876 22.9 -17.5
      vertex 19.4249 25 -17.5
    endloop
  endfacet
  facet normal 0 0 1
    outer loop
      vertex 14.5751 25 -17.5
      vertex 15.7876 22.9 -17.5
      vertex 15.7876 27.1 -17.5
    endloop
  endfacet
endsolid OpenSCAD_Model
