solid OpenSCAD_Model
  facet normal 2.44811e-016 -0.70358 -0.710616
    outer loop
      vertex 30.01 0.01 30
      vertex 30.01 -1 31
      vertex 30 0.01 30
    endloop
  endfacet
  facet normal 2.44811e-016 -0.70358 -0.710616
    outer loop
      vertex 30 0 30.0099
      vertex 30.01 -1 31
      vertex -12 -1 31
    endloop
  endfacet
  facet normal 2.44811e-016 -0.70358 -0.710616
    outer loop
      vertex 30 0.01 30
      vertex 30.01 -1 31
      vertex 30 0 30.0099
    endloop
  endfacet
  facet normal 2.44811e-016 -0.70358 -0.710616
    outer loop
      vertex 30 0 30.0099
      vertex -12 -1 31
      vertex -12 0 30.0099
    endloop
  endfacet
  facet normal 1 0 2.99782e-016
    outer loop
      vertex 30.01 -1 31
      vertex 30.01 0.01 30
      vertex 30.01 0.01 37.8
    endloop
  endfacet
  facet normal 1 0 2.99782e-016
    outer loop
      vertex 30.01 -1 37.8
      vertex 30.01 -1 31
      vertex 30.01 0.01 37.8
    endloop
  endfacet
  facet normal 0 1 0
    outer loop
      vertex 30.01 0.01 30
      vertex 30 0.01 30
      vertex 30.01 0.01 37.8
    endloop
  endfacet
  facet normal 0 1 0
    outer loop
      vertex 30.01 0.01 37.8
      vertex 30 0.01 30
      vertex 30 0.01 37.8
    endloop
  endfacet
  facet normal 1 0 1.22461e-016
    outer loop
      vertex 30 5 55
      vertex 30 0 55
      vertex 30 0 37.8
    endloop
  endfacet
  facet normal 1 0 1.22461e-016
    outer loop
      vertex 30 0.01 30
      vertex 30 5 55
      vertex 30 0.01 37.8
    endloop
  endfacet
  facet normal 1 0 1.22461e-016
    outer loop
      vertex 30 0.01 37.8
      vertex 30 5 55
      vertex 30 0 37.8
    endloop
  endfacet
  facet normal 1 0 1.22461e-016
    outer loop
      vertex 30 0 3.67382e-015
      vertex 30 5 55
      vertex 30 0.01 30
    endloop
  endfacet
  facet normal 1 0 1.22461e-016
    outer loop
      vertex 30 0 3.67382e-015
      vertex 30 0.01 30
      vertex 30 0 30.0099
    endloop
  endfacet
  facet normal 1 0 1.22461e-016
    outer loop
      vertex 30 5 7
      vertex 30 5 55
      vertex 30 0 3.67382e-015
    endloop
  endfacet
  facet normal 1 0 1.22461e-016
    outer loop
      vertex 30 40 3.67382e-015
      vertex 30 5 7
      vertex 30 0 3.67382e-015
    endloop
  endfacet
  facet normal 1 0 1.22461e-016
    outer loop
      vertex 30 40 7
      vertex 30 5 7
      vertex 30 40 3.67382e-015
    endloop
  endfacet
  facet normal 0 -1 0
    outer loop
      vertex 16.2124 0 27.7
      vertex 30 0 30.0099
      vertex -12 0 30.0099
    endloop
  endfacet
  facet normal 0 -1 0
    outer loop
      vertex -30 0 30
      vertex 30 0 3.67382e-015
      vertex -12 0 30
    endloop
  endfacet
  facet normal 0 -1 0
    outer loop
      vertex -12 0 30
      vertex 30 0 3.67382e-015
      vertex -12 0 30.0099
    endloop
  endfacet
  facet normal 0 -1 0
    outer loop
      vertex -30 0 -3.67382e-015
      vertex 30 0 3.67382e-015
      vertex -30 0 30
    endloop
  endfacet
  facet normal 0 -1 0
    outer loop
      vertex 13.7876 0 27.7
      vertex 16.2124 0 27.7
      vertex -12 0 30.0099
    endloop
  endfacet
  facet normal 0 -1 0
    outer loop
      vertex 17.4249 0 25.6
      vertex 30 0 30.0099
      vertex 16.2124 0 27.7
    endloop
  endfacet
  facet normal 0 -1 0
    outer loop
      vertex -1.21244 0 23.5
      vertex -2.42487 0 25.6
      vertex -12 0 30.0099
    endloop
  endfacet
  facet normal 0 -1 0
    outer loop
      vertex 30 0 3.67382e-015
      vertex 30 0 30.0099
      vertex 17.4249 0 25.6
    endloop
  endfacet
  facet normal 0 -1 0
    outer loop
      vertex 1.21244 0 27.7
      vertex 13.7876 0 23.5
      vertex 12.5751 0 25.6
    endloop
  endfacet
  facet normal 0 -1 0
    outer loop
      vertex 30 0 3.67382e-015
      vertex 16.2124 0 23.5
      vertex 13.7876 0 23.5
    endloop
  endfacet
  facet normal 0 -1 0
    outer loop
      vertex 1.21244 0 27.7
      vertex 13.7876 0 27.7
      vertex -12 0 30.0099
    endloop
  endfacet
  facet normal 0 -1 0
    outer loop
      vertex 12.5751 0 25.6
      vertex 13.7876 0 27.7
      vertex 1.21244 0 27.7
    endloop
  endfacet
  facet normal 0 -1 0
    outer loop
      vertex 30 0 3.67382e-015
      vertex 13.7876 0 23.5
      vertex 2.42487 0 25.6
    endloop
  endfacet
  facet normal 0 -1 0
    outer loop
      vertex -2.42487 0 25.6
      vertex -1.21244 0 27.7
      vertex -12 0 30.0099
    endloop
  endfacet
  facet normal 0 -1 0
    outer loop
      vertex 30 0 3.67382e-015
      vertex 2.42487 0 25.6
      vertex 1.21244 0 23.5
    endloop
  endfacet
  facet normal 0 -1 0
    outer loop
      vertex 30 0 3.67382e-015
      vertex -1.21244 0 23.5
      vertex -12 0 30.0099
    endloop
  endfacet
  facet normal 0 -1 0
    outer loop
      vertex 30 0 3.67382e-015
      vertex 1.21244 0 23.5
      vertex -1.21244 0 23.5
    endloop
  endfacet
  facet normal 0 -1 0
    outer loop
      vertex -1.21244 0 27.7
      vertex 1.21244 0 27.7
      vertex -12 0 30.0099
    endloop
  endfacet
  facet normal 0 -1 0
    outer loop
      vertex 17.4249 0 25.6
      vertex 16.2124 0 23.5
      vertex 30 0 3.67382e-015
    endloop
  endfacet
  facet normal 0 -1 0
    outer loop
      vertex 1.21244 0 27.7
      vertex 2.42487 0 25.6
      vertex 13.7876 0 23.5
    endloop
  endfacet
  facet normal -1 0 -1.22461e-016
    outer loop
      vertex -12 0 55
      vertex -12 5 55
      vertex -12 0 37.8
    endloop
  endfacet
  facet normal -1 0 -1.22461e-016
    outer loop
      vertex -12 0 37.8
      vertex -12 5 55
      vertex -12 5 30
    endloop
  endfacet
  facet normal -1 0 -1.22461e-016
    outer loop
      vertex -12 0 30.0099
      vertex -12 5 30
      vertex -12 0 30
    endloop
  endfacet
  facet normal -1 0 -1.22461e-016
    outer loop
      vertex -12 0 37.8
      vertex -12 5 30
      vertex -12 0 30.0099
    endloop
  endfacet
  facet normal -1 0 -1.22461e-016
    outer loop
      vertex -12 0 30.0099
      vertex -12 -1 31
      vertex -12 0 37.8
    endloop
  endfacet
  facet normal -1 0 -1.22461e-016
    outer loop
      vertex -12 0 37.8
      vertex -12 -1 31
      vertex -12 -1 37.8
    endloop
  endfacet
  facet normal 0 -1 0
    outer loop
      vertex -12 -1 31
      vertex 30.01 -1 31
      vertex 30.01 -1 37.8
    endloop
  endfacet
  facet normal 0 -1 0
    outer loop
      vertex -12 -1 37.8
      vertex -12 -1 31
      vertex 30.01 -1 37.8
    endloop
  endfacet
  facet normal -3.44505e-016 0 1
    outer loop
      vertex 30 0 37.8
      vertex 30.01 -1 37.8
      vertex 30.01 0.01 37.8
    endloop
  endfacet
  facet normal -3.44505e-016 0 1
    outer loop
      vertex 30 0 37.8
      vertex -12 0 37.8
      vertex -12 -1 37.8
    endloop
  endfacet
  facet normal -3.44505e-016 0 1
    outer loop
      vertex -12 -1 37.8
      vertex 30.01 -1 37.8
      vertex 30 0 37.8
    endloop
  endfacet
  facet normal -3.44505e-016 0 1
    outer loop
      vertex 30 0.01 37.8
      vertex 30 0 37.8
      vertex 30.01 0.01 37.8
    endloop
  endfacet
  facet normal -1.22461e-016 0 1
    outer loop
      vertex -12 0 55
      vertex 30 0 55
      vertex 30 5 55
    endloop
  endfacet
  facet normal -1.22461e-016 0 1
    outer loop
      vertex 25 5 55
      vertex -12 0 55
      vertex 30 5 55
    endloop
  endfacet
  facet normal -1.22461e-016 0 1
    outer loop
      vertex -12 5 55
      vertex -12 0 55
      vertex 25 5 55
    endloop
  endfacet
  facet normal 1 0 2.99782e-016
    outer loop
      vertex 30 5 55
      vertex 30 5 7
      vertex 30 40 7
    endloop
  endfacet
  facet normal 1 0 2.99782e-016
    outer loop
      vertex 30 5 55.01
      vertex 30 5 55
      vertex 30 40.01 7
    endloop
  endfacet
  facet normal 1 0 2.99782e-016
    outer loop
      vertex 30 40.01 7
      vertex 30 5 55
      vertex 30 40 7
    endloop
  endfacet
  facet normal 3.44505e-016 0 -1
    outer loop
      vertex 30 40 7
      vertex 25 40 7
      vertex 30 40.01 7
    endloop
  endfacet
  facet normal 3.44505e-016 0 -1
    outer loop
      vertex 30 40.01 7
      vertex 25 40 7
      vertex 25 40.01 7
    endloop
  endfacet
  facet normal 0 1 0
    outer loop
      vertex 30 40 7
      vertex 30 40 3.67382e-015
      vertex 25 40 7
    endloop
  endfacet
  facet normal 0 1 0
    outer loop
      vertex 25 40 7
      vertex 30 40 3.67382e-015
      vertex -30 40 -3.67382e-015
    endloop
  endfacet
  facet normal 0 1 0
    outer loop
      vertex 25 40 7
      vertex -30 40 -3.67382e-015
      vertex -30 40 7
    endloop
  endfacet
  facet normal 0 1 0
    outer loop
      vertex -30 40 7
      vertex -25 40 7
      vertex 25 40 7
    endloop
  endfacet
  facet normal 1.22461e-016 0 -1
    outer loop
      vertex -19.4249 25 -2.37878e-015
      vertex -30 0 -3.67382e-015
      vertex -30 40 -3.67382e-015
    endloop
  endfacet
  facet normal 1.22461e-016 0 -1
    outer loop
      vertex 30 0 3.67382e-015
      vertex -30 0 -3.67382e-015
      vertex 18.2124 22.9 2.23031e-015
    endloop
  endfacet
  facet normal 1.22461e-016 0 -1
    outer loop
      vertex 30 0 3.67382e-015
      vertex 18.2124 22.9 2.23031e-015
      vertex 30 40 3.67382e-015
    endloop
  endfacet
  facet normal 1.22461e-016 0 -1
    outer loop
      vertex 4.6194 23.0866 5.65694e-016
      vertex 30 40 3.67382e-015
      vertex 15.7876 27.1 1.93336e-015
    endloop
  endfacet
  facet normal 1.22461e-016 0 -1
    outer loop
      vertex 18.2124 22.9 2.23031e-015
      vertex 19.4249 25 2.37878e-015
      vertex 30 40 3.67382e-015
    endloop
  endfacet
  facet normal 1.22461e-016 0 -1
    outer loop
      vertex 15.7876 22.9 1.93336e-015
      vertex -30 0 -3.67382e-015
      vertex 14.5751 25 1.78488e-015
    endloop
  endfacet
  facet normal 1.22461e-016 0 -1
    outer loop
      vertex 19.4249 25 2.37878e-015
      vertex 18.2124 27.1 2.23031e-015
      vertex 30 40 3.67382e-015
    endloop
  endfacet
  facet normal 1.22461e-016 0 -1
    outer loop
      vertex 18.2124 27.1 2.23031e-015
      vertex 15.7876 27.1 1.93336e-015
      vertex 30 40 3.67382e-015
    endloop
  endfacet
  facet normal 1.22461e-016 0 -1
    outer loop
      vertex 4.6194 23.0866 5.65694e-016
      vertex 15.7876 27.1 1.93336e-015
      vertex 3.53553 21.4645 4.32964e-016
    endloop
  endfacet
  facet normal 1.22461e-016 0 -1
    outer loop
      vertex 18.2124 22.9 2.23031e-015
      vertex -30 0 -3.67382e-015
      vertex 15.7876 22.9 1.93336e-015
    endloop
  endfacet
  facet normal 1.22461e-016 0 -1
    outer loop
      vertex -18.2124 27.1 -2.23031e-015
      vertex -30 40 -3.67382e-015
      vertex -15.7876 27.1 -1.93336e-015
    endloop
  endfacet
  facet normal 1.22461e-016 0 -1
    outer loop
      vertex 30 40 3.67382e-015
      vertex 4.6194 23.0866 5.65694e-016
      vertex 5 25 6.12303e-016
    endloop
  endfacet
  facet normal 1.22461e-016 0 -1
    outer loop
      vertex 30 40 3.67382e-015
      vertex 5 25 6.12303e-016
      vertex 4.6194 26.9134 5.65694e-016
    endloop
  endfacet
  facet normal 1.22461e-016 0 -1
    outer loop
      vertex 30 40 3.67382e-015
      vertex 4.6194 26.9134 5.65694e-016
      vertex 3.53553 28.5355 4.32964e-016
    endloop
  endfacet
  facet normal 1.22461e-016 0 -1
    outer loop
      vertex 30 40 3.67382e-015
      vertex 3.53553 28.5355 4.32964e-016
      vertex 1.91342 29.6194 2.34318e-016
    endloop
  endfacet
  facet normal 1.22461e-016 0 -1
    outer loop
      vertex 30 40 3.67382e-015
      vertex 1.91342 29.6194 2.34318e-016
      vertex -30 40 -3.67382e-015
    endloop
  endfacet
  facet normal 1.22461e-016 0 -1
    outer loop
      vertex 1.91342 29.6194 2.34318e-016
      vertex 0 30 0
      vertex -30 40 -3.67382e-015
    endloop
  endfacet
  facet normal 1.22461e-016 0 -1
    outer loop
      vertex -3.53553 28.5355 -4.32964e-016
      vertex -30 40 -3.67382e-015
      vertex -1.91342 29.6194 -2.34318e-016
    endloop
  endfacet
  facet normal 1.22461e-016 0 -1
    outer loop
      vertex -4.6194 26.9134 -5.65694e-016
      vertex -30 40 -3.67382e-015
      vertex -3.53553 28.5355 -4.32964e-016
    endloop
  endfacet
  facet normal 1.22461e-016 0 -1
    outer loop
      vertex -5 25 -6.12303e-016
      vertex -30 0 -3.67382e-015
      vertex -4.6194 26.9134 -5.65694e-016
    endloop
  endfacet
  facet normal 1.22461e-016 0 -1
    outer loop
      vertex 0 20 0
      vertex -30 0 -3.67382e-015
      vertex -1.91342 20.3806 -2.34318e-016
    endloop
  endfacet
  facet normal 1.22461e-016 0 -1
    outer loop
      vertex -4.6194 23.0866 -5.65694e-016
      vertex -30 0 -3.67382e-015
      vertex -5 25 -6.12303e-016
    endloop
  endfacet
  facet normal 1.22461e-016 0 -1
    outer loop
      vertex -3.53553 21.4645 -4.32964e-016
      vertex -30 0 -3.67382e-015
      vertex -4.6194 23.0866 -5.65694e-016
    endloop
  endfacet
  facet normal 1.22461e-016 0 -1
    outer loop
      vertex -1.91342 20.3806 -2.34318e-016
      vertex -30 0 -3.67382e-015
      vertex -3.53553 21.4645 -4.32964e-016
    endloop
  endfacet
  facet normal 1.22461e-016 0 -1
    outer loop
      vertex 1.91342 20.3806 2.34318e-016
      vertex -30 0 -3.67382e-015
      vertex 0 20 0
    endloop
  endfacet
  facet normal 1.22461e-016 0 -1
    outer loop
      vertex -1.91342 29.6194 -2.34318e-016
      vertex -30 40 -3.67382e-015
      vertex 0 30 0
    endloop
  endfacet
  facet normal 1.22461e-016 0 -1
    outer loop
      vertex 15.7876 27.1 1.93336e-015
      vertex -30 0 -3.67382e-015
      vertex 1.91342 20.3806 2.34318e-016
    endloop
  endfacet
  facet normal 1.22461e-016 0 -1
    outer loop
      vertex 15.7876 27.1 1.93336e-015
      vertex 1.91342 20.3806 2.34318e-016
      vertex 3.53553 21.4645 4.32964e-016
    endloop
  endfacet
  facet normal 1.22461e-016 0 -1
    outer loop
      vertex -4.6194 26.9134 -5.65694e-016
      vertex -30 0 -3.67382e-015
      vertex -15.7876 22.9 -1.93336e-015
    endloop
  endfacet
  facet normal 1.22461e-016 0 -1
    outer loop
      vertex -4.6194 26.9134 -5.65694e-016
      vertex -15.7876 22.9 -1.93336e-015
      vertex -14.5751 25 -1.78488e-015
    endloop
  endfacet
  facet normal 1.22461e-016 0 -1
    outer loop
      vertex -4.6194 26.9134 -5.65694e-016
      vertex -14.5751 25 -1.78488e-015
      vertex -15.7876 27.1 -1.93336e-015
    endloop
  endfacet
  facet normal 1.22461e-016 0 -1
    outer loop
      vertex -4.6194 26.9134 -5.65694e-016
      vertex -15.7876 27.1 -1.93336e-015
      vertex -30 40 -3.67382e-015
    endloop
  endfacet
  facet normal 1.22461e-016 0 -1
    outer loop
      vertex -19.4249 25 -2.37878e-015
      vertex -30 40 -3.67382e-015
      vertex -18.2124 27.1 -2.23031e-015
    endloop
  endfacet
  facet normal 1.22461e-016 0 -1
    outer loop
      vertex -18.2124 22.9 -2.23031e-015
      vertex -30 0 -3.67382e-015
      vertex -19.4249 25 -2.37878e-015
    endloop
  endfacet
  facet normal 1.22461e-016 0 -1
    outer loop
      vertex -15.7876 22.9 -1.93336e-015
      vertex -30 0 -3.67382e-015
      vertex -18.2124 22.9 -2.23031e-015
    endloop
  endfacet
  facet normal 1.22461e-016 0 -1
    outer loop
      vertex 14.5751 25 1.78488e-015
      vertex -30 0 -3.67382e-015
      vertex 15.7876 27.1 1.93336e-015
    endloop
  endfacet
  facet normal 0 -1 0
    outer loop
      vertex 16.2124 0 46.1
      vertex 30 0 55
      vertex -12 0 55
    endloop
  endfacet
  facet normal 0 -1 0
    outer loop
      vertex 13.7876 0 41.9
      vertex 12.5751 0 44
      vertex -12 0 55
    endloop
  endfacet
  facet normal 0 -1 0
    outer loop
      vertex 13.7876 0 46.1
      vertex 16.2124 0 46.1
      vertex -12 0 55
    endloop
  endfacet
  facet normal 0 -1 0
    outer loop
      vertex 30 0 37.8
      vertex 30 0 55
      vertex 16.2124 0 46.1
    endloop
  endfacet
  facet normal 0 -1 0
    outer loop
      vertex -1.21244 0 41.9
      vertex -2.42487 0 44
      vertex -12 0 37.8
    endloop
  endfacet
  facet normal 0 -1 0
    outer loop
      vertex 30 0 37.8
      vertex 16.2124 0 46.1
      vertex 17.4249 0 44
    endloop
  endfacet
  facet normal 0 -1 0
    outer loop
      vertex 12.5751 0 44
      vertex 13.7876 0 46.1
      vertex -12 0 55
    endloop
  endfacet
  facet normal 0 -1 0
    outer loop
      vertex -12 0 37.8
      vertex 30 0 37.8
      vertex 16.2124 0 41.9
    endloop
  endfacet
  facet normal 0 -1 0
    outer loop
      vertex 1.21244 0 46.1
      vertex 13.7876 0 41.9
      vertex -12 0 55
    endloop
  endfacet
  facet normal 0 -1 0
    outer loop
      vertex -12 0 37.8
      vertex 16.2124 0 41.9
      vertex 13.7876 0 41.9
    endloop
  endfacet
  facet normal 0 -1 0
    outer loop
      vertex -1.21244 0 46.1
      vertex 1.21244 0 46.1
      vertex -12 0 55
    endloop
  endfacet
  facet normal 0 -1 0
    outer loop
      vertex 2.42487 0 44
      vertex 13.7876 0 41.9
      vertex 1.21244 0 46.1
    endloop
  endfacet
  facet normal 0 -1 0
    outer loop
      vertex 1.21244 0 41.9
      vertex 13.7876 0 41.9
      vertex 2.42487 0 44
    endloop
  endfacet
  facet normal 0 -1 0
    outer loop
      vertex -12 0 37.8
      vertex 13.7876 0 41.9
      vertex 1.21244 0 41.9
    endloop
  endfacet
  facet normal 0 -1 0
    outer loop
      vertex -12 0 37.8
      vertex 1.21244 0 41.9
      vertex -1.21244 0 41.9
    endloop
  endfacet
  facet normal 0 -1 0
    outer loop
      vertex -12 0 37.8
      vertex -2.42487 0 44
      vertex -12 0 55
    endloop
  endfacet
  facet normal 0 -1 0
    outer loop
      vertex -2.42487 0 44
      vertex -1.21244 0 46.1
      vertex -12 0 55
    endloop
  endfacet
  facet normal 0 -1 0
    outer loop
      vertex 17.4249 0 44
      vertex 16.2124 0 41.9
      vertex 30 0 37.8
    endloop
  endfacet
  facet normal -1 0 -1.22461e-016
    outer loop
      vertex -30 0 30
      vertex -30 0.01 30
      vertex -30 0 -3.67382e-015
    endloop
  endfacet
  facet normal -1 0 -1.22461e-016
    outer loop
      vertex -30 0.01 30
      vertex -30 5 30
      vertex -30 0 -3.67382e-015
    endloop
  endfacet
  facet normal -1 0 -1.22461e-016
    outer loop
      vertex -30 0 -3.67382e-015
      vertex -30 5 30
      vertex -30 5 7
    endloop
  endfacet
  facet normal -1 0 -1.22461e-016
    outer loop
      vertex -30 0 -3.67382e-015
      vertex -30 5 7
      vertex -30 40 7
    endloop
  endfacet
  facet normal -1 0 -1.22461e-016
    outer loop
      vertex -30 0 -3.67382e-015
      vertex -30 40 7
      vertex -30 40 -3.67382e-015
    endloop
  endfacet
  facet normal -1.22461e-016 0 1
    outer loop
      vertex -30 23.2379 30
      vertex -25 5 30
      vertex -25 23.2379 30
    endloop
  endfacet
  facet normal -1.22461e-016 0 1
    outer loop
      vertex -30 5 30
      vertex -25 5 30
      vertex -30 23.2379 30
    endloop
  endfacet
  facet normal -1.22461e-016 0 1
    outer loop
      vertex -12 5 30
      vertex -25 5 30
      vertex -30 0.01 30
    endloop
  endfacet
  facet normal -1.22461e-016 0 1
    outer loop
      vertex -30 0.01 30
      vertex -25 5 30
      vertex -30 5 30
    endloop
  endfacet
  facet normal -1.22461e-016 0 1
    outer loop
      vertex -30 0.01 30
      vertex -30 0 30
      vertex -12 5 30
    endloop
  endfacet
  facet normal -1.22461e-016 0 1
    outer loop
      vertex -30 0 30
      vertex -12 0 30
      vertex -12 5 30
    endloop
  endfacet
  facet normal 1.22461e-016 -2.22045e-016 -1
    outer loop
      vertex 13.7876 5 27.7
      vertex 16.2124 5 27.7
      vertex 13.7876 0 27.7
    endloop
  endfacet
  facet normal 1.22461e-016 -2.22045e-016 -1
    outer loop
      vertex 13.7876 0 27.7
      vertex 16.2124 5 27.7
      vertex 16.2124 0 27.7
    endloop
  endfacet
  facet normal -0.866026 -1.11022e-016 -0.5
    outer loop
      vertex 16.2124 5 27.7
      vertex 17.4249 5 25.6
      vertex 16.2124 0 27.7
    endloop
  endfacet
  facet normal -0.866026 -1.11022e-016 -0.5
    outer loop
      vertex 16.2124 0 27.7
      vertex 17.4249 5 25.6
      vertex 17.4249 0 25.6
    endloop
  endfacet
  facet normal 0.866026 -1.11022e-016 -0.5
    outer loop
      vertex 12.5751 0 25.6
      vertex 12.5751 5 25.6
      vertex 13.7876 5 27.7
    endloop
  endfacet
  facet normal 0.866026 -1.11022e-016 -0.5
    outer loop
      vertex 13.7876 0 27.7
      vertex 12.5751 0 25.6
      vertex 13.7876 5 27.7
    endloop
  endfacet
  facet normal 0.866026 1.11022e-016 0.5
    outer loop
      vertex 13.7876 5 23.5
      vertex 12.5751 5 25.6
      vertex 12.5751 0 25.6
    endloop
  endfacet
  facet normal 0.866026 1.11022e-016 0.5
    outer loop
      vertex 13.7876 0 23.5
      vertex 13.7876 5 23.5
      vertex 12.5751 0 25.6
    endloop
  endfacet
  facet normal -1.22461e-016 2.22045e-016 1
    outer loop
      vertex 16.2124 5 23.5
      vertex 13.7876 5 23.5
      vertex 13.7876 0 23.5
    endloop
  endfacet
  facet normal -1.22461e-016 2.22045e-016 1
    outer loop
      vertex 16.2124 0 23.5
      vertex 16.2124 5 23.5
      vertex 13.7876 0 23.5
    endloop
  endfacet
  facet normal -0.866026 1.11022e-016 0.5
    outer loop
      vertex 16.2124 5 23.5
      vertex 16.2124 0 23.5
      vertex 17.4249 5 25.6
    endloop
  endfacet
  facet normal -0.866026 1.11022e-016 0.5
    outer loop
      vertex 17.4249 5 25.6
      vertex 16.2124 0 23.5
      vertex 17.4249 0 25.6
    endloop
  endfacet
  facet normal 1.22461e-016 -2.22045e-016 -1
    outer loop
      vertex -1.21244 5 27.7
      vertex 1.21244 5 27.7
      vertex -1.21244 0 27.7
    endloop
  endfacet
  facet normal 1.22461e-016 -2.22045e-016 -1
    outer loop
      vertex -1.21244 0 27.7
      vertex 1.21244 5 27.7
      vertex 1.21244 0 27.7
    endloop
  endfacet
  facet normal -0.866026 -1.11022e-016 -0.5
    outer loop
      vertex 1.21244 5 27.7
      vertex 2.42487 5 25.6
      vertex 1.21244 0 27.7
    endloop
  endfacet
  facet normal -0.866026 -1.11022e-016 -0.5
    outer loop
      vertex 1.21244 0 27.7
      vertex 2.42487 5 25.6
      vertex 2.42487 0 25.6
    endloop
  endfacet
  facet normal 0.866026 -1.11022e-016 -0.5
    outer loop
      vertex -2.42487 0 25.6
      vertex -2.42487 5 25.6
      vertex -1.21244 5 27.7
    endloop
  endfacet
  facet normal 0.866026 -1.11022e-016 -0.5
    outer loop
      vertex -1.21244 0 27.7
      vertex -2.42487 0 25.6
      vertex -1.21244 5 27.7
    endloop
  endfacet
  facet normal 0.866026 1.11022e-016 0.5
    outer loop
      vertex -1.21244 5 23.5
      vertex -2.42487 5 25.6
      vertex -2.42487 0 25.6
    endloop
  endfacet
  facet normal 0.866026 1.11022e-016 0.5
    outer loop
      vertex -1.21244 0 23.5
      vertex -1.21244 5 23.5
      vertex -2.42487 0 25.6
    endloop
  endfacet
  facet normal -1.22461e-016 2.22045e-016 1
    outer loop
      vertex 1.21244 5 23.5
      vertex -1.21244 5 23.5
      vertex -1.21244 0 23.5
    endloop
  endfacet
  facet normal -1.22461e-016 2.22045e-016 1
    outer loop
      vertex 1.21244 0 23.5
      vertex 1.21244 5 23.5
      vertex -1.21244 0 23.5
    endloop
  endfacet
  facet normal -0.866026 1.11022e-016 0.5
    outer loop
      vertex 1.21244 5 23.5
      vertex 1.21244 0 23.5
      vertex 2.42487 5 25.6
    endloop
  endfacet
  facet normal -0.866026 1.11022e-016 0.5
    outer loop
      vertex 2.42487 5 25.6
      vertex 1.21244 0 23.5
      vertex 2.42487 0 25.6
    endloop
  endfacet
  facet normal 0 1 0
    outer loop
      vertex -12 5 30
      vertex -25 5 7
      vertex -25 5 30
    endloop
  endfacet
  facet normal 0 1 0
    outer loop
      vertex 13.7876 5 46.1
      vertex -25 5 7
      vertex -12 5 30
    endloop
  endfacet
  facet normal 0 1 0
    outer loop
      vertex 13.7876 5 46.1
      vertex 25 5 55
      vertex 16.2124 5 46.1
    endloop
  endfacet
  facet normal 0 1 0
    outer loop
      vertex 25 5 7
      vertex 17.4249 5 44
      vertex 25 5 55
    endloop
  endfacet
  facet normal 0 1 0
    outer loop
      vertex -1.21244 5 27.7
      vertex -25 5 7
      vertex 13.7876 5 41.9
    endloop
  endfacet
  facet normal 0 1 0
    outer loop
      vertex 17.4249 5 44
      vertex 16.2124 5 46.1
      vertex 25 5 55
    endloop
  endfacet
  facet normal 0 1 0
    outer loop
      vertex 12.5751 5 44
      vertex -25 5 7
      vertex 13.7876 5 46.1
    endloop
  endfacet
  facet normal 0 1 0
    outer loop
      vertex 25 5 55
      vertex 13.7876 5 46.1
      vertex -12 5 30
    endloop
  endfacet
  facet normal 0 1 0
    outer loop
      vertex 13.7876 5 41.9
      vertex -25 5 7
      vertex 12.5751 5 44
    endloop
  endfacet
  facet normal 0 1 0
    outer loop
      vertex 25 5 7
      vertex 16.2124 5 41.9
      vertex 17.4249 5 44
    endloop
  endfacet
  facet normal 0 1 0
    outer loop
      vertex 2.42487 5 44
      vertex 25 5 55
      vertex 1.21244 5 41.9
    endloop
  endfacet
  facet normal 0 1 0
    outer loop
      vertex 25 5 7
      vertex 17.4249 5 25.6
      vertex 16.2124 5 41.9
    endloop
  endfacet
  facet normal 0 1 0
    outer loop
      vertex 13.7876 5 23.5
      vertex -25 5 7
      vertex 12.5751 5 25.6
    endloop
  endfacet
  facet normal 0 1 0
    outer loop
      vertex 17.4249 5 25.6
      vertex 16.2124 5 27.7
      vertex 16.2124 5 41.9
    endloop
  endfacet
  facet normal 0 1 0
    outer loop
      vertex 16.2124 5 27.7
      vertex 13.7876 5 27.7
      vertex 16.2124 5 41.9
    endloop
  endfacet
  facet normal 0 1 0
    outer loop
      vertex 25 5 7
      vertex -25 5 7
      vertex 13.7876 5 23.5
    endloop
  endfacet
  facet normal 0 1 0
    outer loop
      vertex 25 5 7
      vertex 13.7876 5 23.5
      vertex 16.2124 5 23.5
    endloop
  endfacet
  facet normal 0 1 0
    outer loop
      vertex 25 5 7
      vertex 16.2124 5 23.5
      vertex 17.4249 5 25.6
    endloop
  endfacet
  facet normal 0 1 0
    outer loop
      vertex -2.42487 5 25.6
      vertex -25 5 7
      vertex -1.21244 5 27.7
    endloop
  endfacet
  facet normal 0 1 0
    outer loop
      vertex 25 5 55
      vertex 2.42487 5 44
      vertex 1.21244 5 46.1
    endloop
  endfacet
  facet normal 0 1 0
    outer loop
      vertex 25 5 55
      vertex 1.21244 5 46.1
      vertex -12 5 55
    endloop
  endfacet
  facet normal 0 1 0
    outer loop
      vertex 16.2124 5 41.9
      vertex -1.21244 5 27.7
      vertex 13.7876 5 41.9
    endloop
  endfacet
  facet normal 0 1 0
    outer loop
      vertex -1.21244 5 27.7
      vertex 16.2124 5 41.9
      vertex 1.21244 5 27.7
    endloop
  endfacet
  facet normal 0 1 0
    outer loop
      vertex -1.21244 5 46.1
      vertex -12 5 55
      vertex 1.21244 5 46.1
    endloop
  endfacet
  facet normal 0 1 0
    outer loop
      vertex 25 5 55
      vertex -12 5 30
      vertex 1.21244 5 41.9
    endloop
  endfacet
  facet normal 0 1 0
    outer loop
      vertex 13.7876 5 27.7
      vertex 2.42487 5 25.6
      vertex 16.2124 5 41.9
    endloop
  endfacet
  facet normal 0 1 0
    outer loop
      vertex 1.21244 5 23.5
      vertex -25 5 7
      vertex -1.21244 5 23.5
    endloop
  endfacet
  facet normal 0 1 0
    outer loop
      vertex 2.42487 5 25.6
      vertex 1.21244 5 27.7
      vertex 16.2124 5 41.9
    endloop
  endfacet
  facet normal 0 1 0
    outer loop
      vertex -1.21244 5 23.5
      vertex -25 5 7
      vertex -2.42487 5 25.6
    endloop
  endfacet
  facet normal 0 1 0
    outer loop
      vertex 12.5751 5 25.6
      vertex -25 5 7
      vertex 13.7876 5 27.7
    endloop
  endfacet
  facet normal 0 1 0
    outer loop
      vertex 13.7876 5 27.7
      vertex -25 5 7
      vertex 1.21244 5 23.5
    endloop
  endfacet
  facet normal 0 1 0
    outer loop
      vertex 13.7876 5 27.7
      vertex 1.21244 5 23.5
      vertex 2.42487 5 25.6
    endloop
  endfacet
  facet normal 0 1 0
    outer loop
      vertex -12 5 55
      vertex -1.21244 5 46.1
      vertex -2.42487 5 44
    endloop
  endfacet
  facet normal 0 1 0
    outer loop
      vertex -12 5 55
      vertex -2.42487 5 44
      vertex -1.21244 5 41.9
    endloop
  endfacet
  facet normal 0 1 0
    outer loop
      vertex -1.21244 5 41.9
      vertex 1.21244 5 41.9
      vertex -12 5 30
    endloop
  endfacet
  facet normal 0 1 0
    outer loop
      vertex -12 5 55
      vertex -1.21244 5 41.9
      vertex -12 5 30
    endloop
  endfacet
  facet normal -1 0 -2.99782e-016
    outer loop
      vertex 25 5 55
      vertex 25 40 7
      vertex 25 5 7
    endloop
  endfacet
  facet normal -1 0 -2.99782e-016
    outer loop
      vertex 25 40.01 7
      vertex 25 40 7
      vertex 25 5 55
    endloop
  endfacet
  facet normal -1 0 -2.99782e-016
    outer loop
      vertex 25 40.01 7
      vertex 25 5 55
      vertex 25 5 55.01
    endloop
  endfacet
  facet normal 0 -1 0
    outer loop
      vertex 25 5 55
      vertex 30 5 55
      vertex 30 5 55.01
    endloop
  endfacet
  facet normal 0 -1 0
    outer loop
      vertex 25 5 55.01
      vertex 25 5 55
      vertex 30 5 55.01
    endloop
  endfacet
  facet normal -2.02983e-016 0.807986 0.589202
    outer loop
      vertex 30 40.01 7
      vertex 25 40.01 7
      vertex 30 5 55.01
    endloop
  endfacet
  facet normal -2.02983e-016 0.807986 0.589202
    outer loop
      vertex 30 5 55.01
      vertex 25 40.01 7
      vertex 25 5 55.01
    endloop
  endfacet
  facet normal -1.22461e-016 0 1
    outer loop
      vertex 19.4249 25 7
      vertex 25 5 7
      vertex 25 40 7
    endloop
  endfacet
  facet normal -1.22461e-016 0 1
    outer loop
      vertex 1.91342 20.3806 7
      vertex -8.57224e-016 20 7
      vertex -25 5 7
    endloop
  endfacet
  facet normal -1.22461e-016 0 1
    outer loop
      vertex 18.2124 27.1 7
      vertex 19.4249 25 7
      vertex 25 40 7
    endloop
  endfacet
  facet normal -1.22461e-016 0 1
    outer loop
      vertex 18.2124 22.9 7
      vertex 25 5 7
      vertex 19.4249 25 7
    endloop
  endfacet
  facet normal -1.22461e-016 0 1
    outer loop
      vertex -25 5 7
      vertex 25 5 7
      vertex 18.2124 22.9 7
    endloop
  endfacet
  facet normal -1.22461e-016 0 1
    outer loop
      vertex 15.7876 27.1 7
      vertex 18.2124 27.1 7
      vertex 25 40 7
    endloop
  endfacet
  facet normal -1.22461e-016 0 1
    outer loop
      vertex -25 5 7
      vertex 18.2124 22.9 7
      vertex 15.7876 22.9 7
    endloop
  endfacet
  facet normal -1.22461e-016 0 1
    outer loop
      vertex 5 25 7
      vertex 15.7876 27.1 7
      vertex 25 40 7
    endloop
  endfacet
  facet normal -1.22461e-016 0 1
    outer loop
      vertex -25 5 7
      vertex 14.5751 25 7
      vertex 15.7876 27.1 7
    endloop
  endfacet
  facet normal -1.22461e-016 0 1
    outer loop
      vertex 4.6194 23.0866 7
      vertex 15.7876 27.1 7
      vertex 5 25 7
    endloop
  endfacet
  facet normal -1.22461e-016 0 1
    outer loop
      vertex 3.53553 21.4645 7
      vertex 15.7876 27.1 7
      vertex 4.6194 23.0866 7
    endloop
  endfacet
  facet normal -1.22461e-016 0 1
    outer loop
      vertex 1.91342 20.3806 7
      vertex 15.7876 27.1 7
      vertex 3.53553 21.4645 7
    endloop
  endfacet
  facet normal -1.22461e-016 0 1
    outer loop
      vertex -8.57224e-016 20 7
      vertex -1.91342 20.3806 7
      vertex -25 5 7
    endloop
  endfacet
  facet normal -1.22461e-016 0 1
    outer loop
      vertex -25 5 7
      vertex 15.7876 27.1 7
      vertex 1.91342 20.3806 7
    endloop
  endfacet
  facet normal -1.22461e-016 0 1
    outer loop
      vertex -1.91342 20.3806 7
      vertex -3.53553 21.4645 7
      vertex -25 5 7
    endloop
  endfacet
  facet normal -1.22461e-016 0 1
    outer loop
      vertex -8.57224e-016 30 7
      vertex 1.91342 29.6194 7
      vertex 25 40 7
    endloop
  endfacet
  facet normal -1.22461e-016 0 1
    outer loop
      vertex -14.5751 25 7
      vertex -25 5 7
      vertex -3.53553 21.4645 7
    endloop
  endfacet
  facet normal -1.22461e-016 0 1
    outer loop
      vertex -19.4249 25 7
      vertex -18.2124 27.1 7
      vertex -25 40 7
    endloop
  endfacet
  facet normal -1.22461e-016 0 1
    outer loop
      vertex -25 40 7
      vertex -3.53553 21.4645 7
      vertex -4.6194 23.0866 7
    endloop
  endfacet
  facet normal -1.22461e-016 0 1
    outer loop
      vertex 3.53553 28.5355 7
      vertex 4.6194 26.9134 7
      vertex 25 40 7
    endloop
  endfacet
  facet normal -1.22461e-016 0 1
    outer loop
      vertex -25 40 7
      vertex -4.6194 23.0866 7
      vertex -5 25 7
    endloop
  endfacet
  facet normal -1.22461e-016 0 1
    outer loop
      vertex 1.91342 29.6194 7
      vertex 3.53553 28.5355 7
      vertex 25 40 7
    endloop
  endfacet
  facet normal -1.22461e-016 0 1
    outer loop
      vertex -25 40 7
      vertex -5 25 7
      vertex -4.6194 26.9134 7
    endloop
  endfacet
  facet normal -1.22461e-016 0 1
    outer loop
      vertex -18.2124 27.1 7
      vertex -15.7876 27.1 7
      vertex -25 40 7
    endloop
  endfacet
  facet normal -1.22461e-016 0 1
    outer loop
      vertex -25 40 7
      vertex -4.6194 26.9134 7
      vertex -3.53553 28.5355 7
    endloop
  endfacet
  facet normal -1.22461e-016 0 1
    outer loop
      vertex -25 40 7
      vertex -1.91342 29.6194 7
      vertex 25 40 7
    endloop
  endfacet
  facet normal -1.22461e-016 0 1
    outer loop
      vertex -25 40 7
      vertex -3.53553 28.5355 7
      vertex -1.91342 29.6194 7
    endloop
  endfacet
  facet normal -1.22461e-016 0 1
    outer loop
      vertex -1.91342 29.6194 7
      vertex -8.57224e-016 30 7
      vertex 25 40 7
    endloop
  endfacet
  facet normal -1.22461e-016 0 1
    outer loop
      vertex -15.7876 27.1 7
      vertex -14.5751 25 7
      vertex -3.53553 21.4645 7
    endloop
  endfacet
  facet normal -1.22461e-016 0 1
    outer loop
      vertex -15.7876 22.9 7
      vertex -25 5 7
      vertex -14.5751 25 7
    endloop
  endfacet
  facet normal -1.22461e-016 0 1
    outer loop
      vertex -18.2124 22.9 7
      vertex -25 5 7
      vertex -15.7876 22.9 7
    endloop
  endfacet
  facet normal -1.22461e-016 0 1
    outer loop
      vertex -19.4249 25 7
      vertex -25 5 7
      vertex -18.2124 22.9 7
    endloop
  endfacet
  facet normal -1.22461e-016 0 1
    outer loop
      vertex -25 40 7
      vertex -25 5 7
      vertex -19.4249 25 7
    endloop
  endfacet
  facet normal -1.22461e-016 0 1
    outer loop
      vertex -25 40 7
      vertex -15.7876 27.1 7
      vertex -3.53553 21.4645 7
    endloop
  endfacet
  facet normal -1.22461e-016 0 1
    outer loop
      vertex 15.7876 22.9 7
      vertex 14.5751 25 7
      vertex -25 5 7
    endloop
  endfacet
  facet normal -1.22461e-016 0 1
    outer loop
      vertex 4.6194 26.9134 7
      vertex 5 25 7
      vertex 25 40 7
    endloop
  endfacet
  facet normal 1 0 2.99782e-016
    outer loop
      vertex -25 5 30
      vertex -25 5 7
      vertex -25 40 7
    endloop
  endfacet
  facet normal 1 0 2.99782e-016
    outer loop
      vertex -25 23.2379 30
      vertex -25 5 30
      vertex -25 40.01 7
    endloop
  endfacet
  facet normal 1 0 2.99782e-016
    outer loop
      vertex -25 40.01 7
      vertex -25 5 30
      vertex -25 40 7
    endloop
  endfacet
  facet normal 3.44505e-016 0 -1
    outer loop
      vertex -25 40 7
      vertex -30 40 7
      vertex -25 40.01 7
    endloop
  endfacet
  facet normal 3.44505e-016 0 -1
    outer loop
      vertex -25 40.01 7
      vertex -30 40 7
      vertex -30 40.01 7
    endloop
  endfacet
  facet normal -1 0 -2.99782e-016
    outer loop
      vertex -30 5 7
      vertex -30 5 30
      vertex -30 40 7
    endloop
  endfacet
  facet normal -1 0 -2.99782e-016
    outer loop
      vertex -30 40 7
      vertex -30 5 30
      vertex -30 23.2379 30
    endloop
  endfacet
  facet normal -1 0 -2.99782e-016
    outer loop
      vertex -30 40 7
      vertex -30 23.2379 30
      vertex -30 40.01 7
    endloop
  endfacet
  facet normal -0.866026 0.5 -1.06054e-016
    outer loop
      vertex 18.2124 22.9 2.23031e-015
      vertex 18.2124 22.9 7
      vertex 19.4249 25 2.37878e-015
    endloop
  endfacet
  facet normal -0.866026 0.5 -1.06054e-016
    outer loop
      vertex 19.4249 25 2.37878e-015
      vertex 18.2124 22.9 7
      vertex 19.4249 25 7
    endloop
  endfacet
  facet normal 0 1 0
    outer loop
      vertex 15.7876 22.9 1.93336e-015
      vertex 15.7876 22.9 7
      vertex 18.2124 22.9 2.23031e-015
    endloop
  endfacet
  facet normal 0 1 0
    outer loop
      vertex 18.2124 22.9 2.23031e-015
      vertex 15.7876 22.9 7
      vertex 18.2124 22.9 7
    endloop
  endfacet
  facet normal 0.866026 0.5 1.06054e-016
    outer loop
      vertex 15.7876 22.9 1.93336e-015
      vertex 14.5751 25 1.78488e-015
      vertex 14.5751 25 7
    endloop
  endfacet
  facet normal 0.866026 0.5 1.06054e-016
    outer loop
      vertex 15.7876 22.9 7
      vertex 15.7876 22.9 1.93336e-015
      vertex 14.5751 25 7
    endloop
  endfacet
  facet normal 0.866026 -0.5 1.06054e-016
    outer loop
      vertex 14.5751 25 7
      vertex 14.5751 25 1.78488e-015
      vertex 15.7876 27.1 1.93336e-015
    endloop
  endfacet
  facet normal 0.866026 -0.5 1.06054e-016
    outer loop
      vertex 15.7876 27.1 7
      vertex 14.5751 25 7
      vertex 15.7876 27.1 1.93336e-015
    endloop
  endfacet
  facet normal 0 -1 0
    outer loop
      vertex 15.7876 27.1 7
      vertex 15.7876 27.1 1.93336e-015
      vertex 18.2124 27.1 2.23031e-015
    endloop
  endfacet
  facet normal 0 -1 0
    outer loop
      vertex 18.2124 27.1 7
      vertex 15.7876 27.1 7
      vertex 18.2124 27.1 2.23031e-015
    endloop
  endfacet
  facet normal -0.866026 -0.5 -1.06054e-016
    outer loop
      vertex 18.2124 27.1 2.23031e-015
      vertex 19.4249 25 2.37878e-015
      vertex 18.2124 27.1 7
    endloop
  endfacet
  facet normal -0.866026 -0.5 -1.06054e-016
    outer loop
      vertex 18.2124 27.1 7
      vertex 19.4249 25 2.37878e-015
      vertex 19.4249 25 7
    endloop
  endfacet
  facet normal -0.980785 0.19509 -1.20108e-016
    outer loop
      vertex 4.6194 23.0866 5.65694e-016
      vertex 4.6194 23.0866 7
      vertex 5 25 6.12303e-016
    endloop
  endfacet
  facet normal -0.980785 0.19509 -1.20108e-016
    outer loop
      vertex 5 25 6.12303e-016
      vertex 4.6194 23.0866 7
      vertex 5 25 7
    endloop
  endfacet
  facet normal -0.83147 0.55557 -1.01822e-016
    outer loop
      vertex 3.53553 21.4645 4.32964e-016
      vertex 3.53553 21.4645 7
      vertex 4.6194 23.0866 5.65694e-016
    endloop
  endfacet
  facet normal -0.83147 0.55557 -1.01822e-016
    outer loop
      vertex 4.6194 23.0866 5.65694e-016
      vertex 3.53553 21.4645 7
      vertex 4.6194 23.0866 7
    endloop
  endfacet
  facet normal -0.55557 0.83147 -6.80355e-017
    outer loop
      vertex 1.91342 20.3806 2.34318e-016
      vertex 1.91342 20.3806 7
      vertex 3.53553 21.4645 4.32964e-016
    endloop
  endfacet
  facet normal -0.55557 0.83147 -6.80355e-017
    outer loop
      vertex 3.53553 21.4645 4.32964e-016
      vertex 1.91342 20.3806 7
      vertex 3.53553 21.4645 7
    endloop
  endfacet
  facet normal -0.19509 0.980785 -2.38909e-017
    outer loop
      vertex 0 20 0
      vertex -8.57224e-016 20 7
      vertex 1.91342 20.3806 2.34318e-016
    endloop
  endfacet
  facet normal -0.19509 0.980785 -2.38909e-017
    outer loop
      vertex 1.91342 20.3806 2.34318e-016
      vertex -8.57224e-016 20 7
      vertex 1.91342 20.3806 7
    endloop
  endfacet
  facet normal 0.19509 0.980785 2.38909e-017
    outer loop
      vertex -1.91342 20.3806 -2.34318e-016
      vertex -1.91342 20.3806 7
      vertex 0 20 0
    endloop
  endfacet
  facet normal 0.19509 0.980785 2.38909e-017
    outer loop
      vertex 0 20 0
      vertex -1.91342 20.3806 7
      vertex -8.57224e-016 20 7
    endloop
  endfacet
  facet normal 0.55557 0.83147 6.80355e-017
    outer loop
      vertex -3.53553 21.4645 -4.32964e-016
      vertex -3.53553 21.4645 7
      vertex -1.91342 20.3806 -2.34318e-016
    endloop
  endfacet
  facet normal 0.55557 0.83147 6.80355e-017
    outer loop
      vertex -1.91342 20.3806 -2.34318e-016
      vertex -3.53553 21.4645 7
      vertex -1.91342 20.3806 7
    endloop
  endfacet
  facet normal 0.83147 0.55557 1.01822e-016
    outer loop
      vertex -3.53553 21.4645 -4.32964e-016
      vertex -4.6194 23.0866 -5.65694e-016
      vertex -4.6194 23.0866 7
    endloop
  endfacet
  facet normal 0.83147 0.55557 1.01822e-016
    outer loop
      vertex -3.53553 21.4645 7
      vertex -3.53553 21.4645 -4.32964e-016
      vertex -4.6194 23.0866 7
    endloop
  endfacet
  facet normal 0.980785 0.19509 1.20108e-016
    outer loop
      vertex -4.6194 23.0866 -5.65694e-016
      vertex -5 25 -6.12303e-016
      vertex -5 25 7
    endloop
  endfacet
  facet normal 0.980785 0.19509 1.20108e-016
    outer loop
      vertex -4.6194 23.0866 7
      vertex -4.6194 23.0866 -5.65694e-016
      vertex -5 25 7
    endloop
  endfacet
  facet normal 0.980785 -0.19509 1.20108e-016
    outer loop
      vertex -5 25 7
      vertex -5 25 -6.12303e-016
      vertex -4.6194 26.9134 -5.65694e-016
    endloop
  endfacet
  facet normal 0.980785 -0.19509 1.20108e-016
    outer loop
      vertex -4.6194 26.9134 7
      vertex -5 25 7
      vertex -4.6194 26.9134 -5.65694e-016
    endloop
  endfacet
  facet normal 0.83147 -0.55557 1.01822e-016
    outer loop
      vertex -4.6194 26.9134 7
      vertex -4.6194 26.9134 -5.65694e-016
      vertex -3.53553 28.5355 -4.32964e-016
    endloop
  endfacet
  facet normal 0.83147 -0.55557 1.01822e-016
    outer loop
      vertex -3.53553 28.5355 7
      vertex -4.6194 26.9134 7
      vertex -3.53553 28.5355 -4.32964e-016
    endloop
  endfacet
  facet normal 0.55557 -0.83147 6.80355e-017
    outer loop
      vertex -3.53553 28.5355 7
      vertex -3.53553 28.5355 -4.32964e-016
      vertex -1.91342 29.6194 -2.34318e-016
    endloop
  endfacet
  facet normal 0.55557 -0.83147 6.80355e-017
    outer loop
      vertex -1.91342 29.6194 7
      vertex -3.53553 28.5355 7
      vertex -1.91342 29.6194 -2.34318e-016
    endloop
  endfacet
  facet normal 0.19509 -0.980785 2.38909e-017
    outer loop
      vertex -1.91342 29.6194 7
      vertex -1.91342 29.6194 -2.34318e-016
      vertex 0 30 0
    endloop
  endfacet
  facet normal 0.19509 -0.980785 2.38909e-017
    outer loop
      vertex -8.57224e-016 30 7
      vertex -1.91342 29.6194 7
      vertex 0 30 0
    endloop
  endfacet
  facet normal -0.19509 -0.980785 -2.38909e-017
    outer loop
      vertex -8.57224e-016 30 7
      vertex 0 30 0
      vertex 1.91342 29.6194 2.34318e-016
    endloop
  endfacet
  facet normal -0.19509 -0.980785 -2.38909e-017
    outer loop
      vertex 1.91342 29.6194 7
      vertex -8.57224e-016 30 7
      vertex 1.91342 29.6194 2.34318e-016
    endloop
  endfacet
  facet normal -0.55557 -0.83147 -6.80355e-017
    outer loop
      vertex 1.91342 29.6194 7
      vertex 1.91342 29.6194 2.34318e-016
      vertex 3.53553 28.5355 4.32964e-016
    endloop
  endfacet
  facet normal -0.55557 -0.83147 -6.80355e-017
    outer loop
      vertex 3.53553 28.5355 7
      vertex 1.91342 29.6194 7
      vertex 3.53553 28.5355 4.32964e-016
    endloop
  endfacet
  facet normal -0.83147 -0.55557 -1.01822e-016
    outer loop
      vertex 3.53553 28.5355 4.32964e-016
      vertex 4.6194 26.9134 5.65694e-016
      vertex 3.53553 28.5355 7
    endloop
  endfacet
  facet normal -0.83147 -0.55557 -1.01822e-016
    outer loop
      vertex 3.53553 28.5355 7
      vertex 4.6194 26.9134 5.65694e-016
      vertex 4.6194 26.9134 7
    endloop
  endfacet
  facet normal -0.980785 -0.19509 -1.20108e-016
    outer loop
      vertex 4.6194 26.9134 5.65694e-016
      vertex 5 25 6.12303e-016
      vertex 4.6194 26.9134 7
    endloop
  endfacet
  facet normal -0.980785 -0.19509 -1.20108e-016
    outer loop
      vertex 4.6194 26.9134 7
      vertex 5 25 6.12303e-016
      vertex 5 25 7
    endloop
  endfacet
  facet normal -0.866026 0.5 -1.06054e-016
    outer loop
      vertex -15.7876 22.9 -1.93336e-015
      vertex -15.7876 22.9 7
      vertex -14.5751 25 -1.78488e-015
    endloop
  endfacet
  facet normal -0.866026 0.5 -1.06054e-016
    outer loop
      vertex -14.5751 25 -1.78488e-015
      vertex -15.7876 22.9 7
      vertex -14.5751 25 7
    endloop
  endfacet
  facet normal 0 1 0
    outer loop
      vertex -18.2124 22.9 -2.23031e-015
      vertex -18.2124 22.9 7
      vertex -15.7876 22.9 -1.93336e-015
    endloop
  endfacet
  facet normal 0 1 0
    outer loop
      vertex -15.7876 22.9 -1.93336e-015
      vertex -18.2124 22.9 7
      vertex -15.7876 22.9 7
    endloop
  endfacet
  facet normal 0.866026 0.5 1.06054e-016
    outer loop
      vertex -18.2124 22.9 -2.23031e-015
      vertex -19.4249 25 -2.37878e-015
      vertex -19.4249 25 7
    endloop
  endfacet
  facet normal 0.866026 0.5 1.06054e-016
    outer loop
      vertex -18.2124 22.9 7
      vertex -18.2124 22.9 -2.23031e-015
      vertex -19.4249 25 7
    endloop
  endfacet
  facet normal 0.866026 -0.5 1.06054e-016
    outer loop
      vertex -19.4249 25 7
      vertex -19.4249 25 -2.37878e-015
      vertex -18.2124 27.1 -2.23031e-015
    endloop
  endfacet
  facet normal 0.866026 -0.5 1.06054e-016
    outer loop
      vertex -18.2124 27.1 7
      vertex -19.4249 25 7
      vertex -18.2124 27.1 -2.23031e-015
    endloop
  endfacet
  facet normal 0 -1 0
    outer loop
      vertex -18.2124 27.1 7
      vertex -18.2124 27.1 -2.23031e-015
      vertex -15.7876 27.1 -1.93336e-015
    endloop
  endfacet
  facet normal 0 -1 0
    outer loop
      vertex -15.7876 27.1 7
      vertex -18.2124 27.1 7
      vertex -15.7876 27.1 -1.93336e-015
    endloop
  endfacet
  facet normal -0.866026 -0.5 -1.06054e-016
    outer loop
      vertex -15.7876 27.1 -1.93336e-015
      vertex -14.5751 25 -1.78488e-015
      vertex -15.7876 27.1 7
    endloop
  endfacet
  facet normal -0.866026 -0.5 -1.06054e-016
    outer loop
      vertex -15.7876 27.1 7
      vertex -14.5751 25 -1.78488e-015
      vertex -14.5751 25 7
    endloop
  endfacet
  facet normal 1.22461e-016 -2.22045e-016 -1
    outer loop
      vertex 13.7876 5 46.1
      vertex 16.2124 5 46.1
      vertex 13.7876 0 46.1
    endloop
  endfacet
  facet normal 1.22461e-016 -2.22045e-016 -1
    outer loop
      vertex 13.7876 0 46.1
      vertex 16.2124 5 46.1
      vertex 16.2124 0 46.1
    endloop
  endfacet
  facet normal -0.866026 -1.11022e-016 -0.5
    outer loop
      vertex 16.2124 5 46.1
      vertex 17.4249 5 44
      vertex 16.2124 0 46.1
    endloop
  endfacet
  facet normal -0.866026 -1.11022e-016 -0.5
    outer loop
      vertex 16.2124 0 46.1
      vertex 17.4249 5 44
      vertex 17.4249 0 44
    endloop
  endfacet
  facet normal 0.866026 -1.11022e-016 -0.5
    outer loop
      vertex 12.5751 0 44
      vertex 12.5751 5 44
      vertex 13.7876 5 46.1
    endloop
  endfacet
  facet normal 0.866026 -1.11022e-016 -0.5
    outer loop
      vertex 13.7876 0 46.1
      vertex 12.5751 0 44
      vertex 13.7876 5 46.1
    endloop
  endfacet
  facet normal 0.866026 1.11022e-016 0.5
    outer loop
      vertex 13.7876 5 41.9
      vertex 12.5751 5 44
      vertex 12.5751 0 44
    endloop
  endfacet
  facet normal 0.866026 1.11022e-016 0.5
    outer loop
      vertex 13.7876 0 41.9
      vertex 13.7876 5 41.9
      vertex 12.5751 0 44
    endloop
  endfacet
  facet normal -1.22461e-016 2.22045e-016 1
    outer loop
      vertex 16.2124 5 41.9
      vertex 13.7876 5 41.9
      vertex 13.7876 0 41.9
    endloop
  endfacet
  facet normal -1.22461e-016 2.22045e-016 1
    outer loop
      vertex 16.2124 0 41.9
      vertex 16.2124 5 41.9
      vertex 13.7876 0 41.9
    endloop
  endfacet
  facet normal -0.866026 1.11022e-016 0.5
    outer loop
      vertex 16.2124 5 41.9
      vertex 16.2124 0 41.9
      vertex 17.4249 5 44
    endloop
  endfacet
  facet normal -0.866026 1.11022e-016 0.5
    outer loop
      vertex 17.4249 5 44
      vertex 16.2124 0 41.9
      vertex 17.4249 0 44
    endloop
  endfacet
  facet normal 1.22461e-016 -2.22045e-016 -1
    outer loop
      vertex -1.21244 5 46.1
      vertex 1.21244 5 46.1
      vertex -1.21244 0 46.1
    endloop
  endfacet
  facet normal 1.22461e-016 -2.22045e-016 -1
    outer loop
      vertex -1.21244 0 46.1
      vertex 1.21244 5 46.1
      vertex 1.21244 0 46.1
    endloop
  endfacet
  facet normal -0.866026 -1.11022e-016 -0.5
    outer loop
      vertex 1.21244 5 46.1
      vertex 2.42487 5 44
      vertex 1.21244 0 46.1
    endloop
  endfacet
  facet normal -0.866026 -1.11022e-016 -0.5
    outer loop
      vertex 1.21244 0 46.1
      vertex 2.42487 5 44
      vertex 2.42487 0 44
    endloop
  endfacet
  facet normal 0.866026 -1.11022e-016 -0.5
    outer loop
      vertex -2.42487 0 44
      vertex -2.42487 5 44
      vertex -1.21244 5 46.1
    endloop
  endfacet
  facet normal 0.866026 -1.11022e-016 -0.5
    outer loop
      vertex -1.21244 0 46.1
      vertex -2.42487 0 44
      vertex -1.21244 5 46.1
    endloop
  endfacet
  facet normal 0.866026 1.11022e-016 0.5
    outer loop
      vertex -1.21244 5 41.9
      vertex -2.42487 5 44
      vertex -2.42487 0 44
    endloop
  endfacet
  facet normal 0.866026 1.11022e-016 0.5
    outer loop
      vertex -1.21244 0 41.9
      vertex -1.21244 5 41.9
      vertex -2.42487 0 44
    endloop
  endfacet
  facet normal -1.22461e-016 2.22045e-016 1
    outer loop
      vertex 1.21244 5 41.9
      vertex -1.21244 5 41.9
      vertex -1.21244 0 41.9
    endloop
  endfacet
  facet normal -1.22461e-016 2.22045e-016 1
    outer loop
      vertex 1.21244 0 41.9
      vertex 1.21244 5 41.9
      vertex -1.21244 0 41.9
    endloop
  endfacet
  facet normal -0.866026 1.11022e-016 0.5
    outer loop
      vertex 1.21244 5 41.9
      vertex 1.21244 0 41.9
      vertex 2.42487 5 44
    endloop
  endfacet
  facet normal -0.866026 1.11022e-016 0.5
    outer loop
      vertex 2.42487 5 44
      vertex 1.21244 0 41.9
      vertex 2.42487 0 44
    endloop
  endfacet
  facet normal -2.02983e-016 0.807986 0.589202
    outer loop
      vertex -25 40.01 7
      vertex -30 40.01 7
      vertex -25 23.2379 30
    endloop
  endfacet
  facet normal -2.02983e-016 0.807986 0.589202
    outer loop
      vertex -25 23.2379 30
      vertex -30 40.01 7
      vertex -30 23.2379 30
    endloop
  endfacet
endsolid OpenSCAD_Model
